<?xml version="1.0" encoding="UTF-8"?>
<svg version="1.1" xmlns="http://www.w3.org/2000/svg" width="2694" height="1999">
<path d="M0 0 C1.03486542 0.00060425 2.06973083 0.0012085 3.13595581 0.00183105 C85.01529714 0.13021643 166.0856009 13.22937346 391.9375 105.1875 C392.86498047 105.73438477 393.79246094 106.28126953 394.74804688 106.84472656 C427.40526879 126.18270609 458.12217313 148.18573242 487.83203125 171.7578125 C490.24688792 173.64717206 492.67711127 175.5025494 495.1315918 177.33935547 C495.84606979 177.87430634 496.56054779 178.4092572 497.29667664 178.9604187 C497.83814835 179.36535553 498.37962006 179.77029236 498.9375 180.1875 C499.49519262 179.627042 500.05288525 179.066584 500.62747765 178.48914242 C514.22497619 164.8252661 527.83086543 151.1697967 541.44603539 137.5235281 C548.03014352 130.9239795 554.61142714 124.32166048 561.18603516 117.71264648 C566.91935036 111.94934238 572.65799631 106.1914082 578.40298998 100.43974453 C581.44210667 97.39673164 584.47856669 94.35117418 587.50864792 91.29916191 C590.36663857 88.42065595 593.23175919 85.54943715 596.1022644 82.68341255 C597.14887024 81.63598819 598.19295062 80.58603256 599.23414993 79.53323364 C615.97719447 62.61301883 635.64297698 52.05022083 659.8125 51.875 C691.51421771 51.875 711.74466487 69.86808578 733.12915039 91.20214844 C734.31780063 92.38451663 735.5066335 93.56670123 736.69563293 94.74871826 C740.56232057 98.59458395 744.42387424 102.44558334 748.28515625 106.296875 C749.62408338 107.63174748 750.96304169 108.96658868 752.30203056 110.30139923 C758.59167337 116.57204475 764.87893806 122.84506268 771.16327196 129.12102866 C778.38232889 136.33030955 785.6095974 143.53122562 792.84392554 150.72518134 C798.46149797 156.31249065 804.07127406 161.90755257 809.67538637 167.50836205 C813.01127729 170.84191588 816.35031041 174.17216276 819.69767952 177.49419403 C822.84784978 180.62089643 825.98813632 183.75721137 829.12148857 186.90076447 C830.26396992 188.04373662 831.40979555 189.18337875 832.55943298 190.31915283 C850.28947802 207.84751036 861.58081423 227.84833068 862.1875 253.25 C861.90241553 285.14778433 843.74235719 304.56148169 822.5715332 325.66699219 C821.26921944 326.9690231 819.96712738 328.27127579 818.66523743 329.57373047 C815.16823458 333.07101746 811.66818134 336.56523651 808.16752648 340.05886745 C804.49554946 343.72454656 800.82644891 347.39310264 797.1570282 351.06134033 C790.22495723 357.99031683 783.29034362 364.91674269 776.35478801 371.84223104 C768.45184325 379.73395583 760.55177508 387.62855761 752.65193427 395.52338934 C736.41696373 411.74793819 720.17842628 427.96891306 703.9375 444.1875 C705.20264829 448.04503676 706.55940964 451.72953748 708.265625 455.4140625 C745.62386479 537.12585783 767.67097587 624.60029122 777.140625 755.50390625 C777.14764708 757.11965461 777.1547339 758.7354027 777.16188049 760.35115051 C777.1812743 765.48410442 777.18631438 770.61701314 777.1875 775.75 C777.18794186 776.62445015 777.18838371 777.4989003 777.18883896 778.39984894 C777.19553759 803.6741186 777.06837006 828.81414567 774.19073486 853.95562744 C773.92303744 856.31496499 773.66928656 858.67553706 773.41748047 861.03662109 C764.79725524 941.0896526 743.97996342 1019.37854647 674.9375 1164.1875 C674.41720215 1165.08887695 673.8969043 1165.99025391 673.36083984 1166.91894531 C661.3670435 1187.6793066 648.65484376 1207.94859591 634.38085938 1227.22216797 C632.56828795 1229.69023291 630.80368303 1232.19010059 629.04125977 1234.6940918 C623.60529314 1242.40683523 617.84698694 1249.83316971 611.9375 1257.1875 C611.41752441 1257.83509277 610.89754883 1258.48268555 610.36181641 1259.14990234 C600.68116457 1271.18302537 590.89406617 1283.10012048 580.421875 1294.45703125 C578.43897596 1296.63634954 576.4925629 1298.83631274 574.55859375 1301.05859375 C565.28977152 1311.67803002 555.44903051 1321.7705556 545.5 1331.75 C544.67218018 1332.58241211 543.84436035 1333.41482422 542.99145508 1334.27246094 C538.73203076 1338.52116486 534.39946525 1342.60968166 529.83813477 1346.53198242 C526.68015967 1349.28268623 523.66421652 1352.182136 520.625 1355.0625 C515.48515042 1359.89603467 510.25454566 1364.51312946 504.73828125 1368.91796875 C502.06130127 1371.08718125 499.45227768 1373.31599281 496.8503418 1375.57373047 C490.29925154 1381.257962 483.60612758 1386.67321514 476.67089844 1391.88378906 C474.8305574 1393.26793288 472.99718143 1394.66099576 471.1640625 1396.0546875 C431.58892917 1426.05147011 389.3017187 1451.92601619 344.9375 1474.1875 C343.83889648 1474.74147461 342.74029297 1475.29544922 341.60839844 1475.86621094 C311.96950113 1490.73477497 281.27445403 1502.97553344 249.86352539 1513.53833008 C248.02400356 1514.15834384 246.1867458 1514.78506281 244.34960938 1515.41210938 C180.15139001 1537.25047801 112.56249608 1549.32892202 44.9375 1553.1875 C43.99132813 1553.24534668 43.04515625 1553.30319336 42.0703125 1553.36279297 C-40.12832033 1558.2673502 -123.33375436 1548.90725983 -241.0625 1516.1875 C-242.33817398 1515.76989069 -243.61389109 1515.35241315 -244.88964844 1514.93505859 C-294.94999166 1498.50351001 -343.62810277 1476.89590655 -389.0625 1450.1875 C-390.30435059 1449.46216064 -390.30435059 1449.46216064 -391.57128906 1448.72216797 C-411.61211335 1436.9887293 -431.25358152 1424.59444951 -449.91650391 1410.76416016 C-452.1310817 1409.13711313 -454.36455812 1407.53977347 -456.60546875 1405.94921875 C-466.15689398 1399.16030019 -475.34554992 1392.05362246 -484.37011719 1384.58007812 C-486.61804533 1382.73036922 -488.90133383 1380.92712447 -491.1875 1379.125 C-500.34294343 1371.8191411 -509.15575391 1364.08100504 -517.82421875 1356.20703125 C-519.94227448 1354.29597573 -522.08964567 1352.42544417 -524.25 1350.5625 C-527.37581274 1347.84385725 -530.29517 1344.98004767 -533.19433594 1342.02319336 C-534.96627541 1340.2820521 -536.79231809 1338.66819532 -538.68359375 1337.05859375 C-543.54312824 1332.83179368 -548.08335999 1328.31338768 -552.625 1323.75 C-553.43646484 1322.94240234 -554.24792969 1322.13480469 -555.08398438 1321.30273438 C-559.35545909 1317.02436462 -563.4655036 1312.67176784 -567.40698242 1308.08813477 C-570.15768565 1304.93016033 -573.05712532 1301.9142055 -575.9375 1298.875 C-580.7505672 1293.75727623 -585.34162694 1288.5480826 -589.7265625 1283.0546875 C-592.56891555 1279.56591302 -595.53255058 1276.19476797 -598.5 1272.8125 C-603.79577638 1266.74247397 -608.81441305 1260.53070474 -613.64160156 1254.08105469 C-615.25975214 1251.92463272 -616.89153243 1249.77884302 -618.5234375 1247.6328125 C-631.41648719 1230.62624997 -643.67693061 1213.2399047 -655.0625 1195.1875 C-655.56604004 1194.3929541 -656.06958008 1193.5984082 -656.58837891 1192.77978516 C-665.19916847 1179.16303057 -673.28684999 1165.2963992 -681.0625 1151.1875 C-681.94808594 1149.58890137 -681.94808594 1149.58890137 -682.8515625 1147.95800781 C-704.34080244 1109.03733654 -721.81132788 1068.2960547 -736.0625 1026.1875 C-736.43536133 1025.0934082 -736.80822266 1023.99931641 -737.19238281 1022.87207031 C-755.6374411 968.36732231 -767.46128131 911.44422951 -773.0625 854.1875 C-773.1376886 853.42721497 -773.2128772 852.66692993 -773.29034424 851.88360596 C-775.67023894 827.47308354 -776.34896363 803.08985254 -776.37257385 778.57877731 C-776.37494704 776.48424068 -776.38025116 774.38972665 -776.38586426 772.29519653 C-776.43733722 746.08332287 -775.18731254 719.94369577 -772.375 693.875 C-772.29390991 693.11220734 -772.21281982 692.34941467 -772.12927246 691.56350708 C-762.81257999 605.10104634 -738.53647253 520.75946029 -695.0625 430.1875 C-694.63614258 429.30755371 -694.20978516 428.42760742 -693.77050781 427.52099609 C-668.4454282 375.27421211 -635.40885962 325.15464911 -597.56640625 281.125 C-595.21992706 278.37218822 -592.94845946 275.57312179 -590.6875 272.75 C-586.06374742 267.06178639 -581.07801758 261.74611028 -576.0625 256.40625 C-573.79321937 253.98605662 -571.59015632 251.52523146 -569.4375 249 C-566.18475778 245.22131687 -562.64878241 241.74313252 -559.10009766 238.24658203 C-556.54213867 235.71310949 -554.11261643 233.1434391 -551.8125 230.375 C-547.21662274 224.97790442 -541.85869323 220.32511654 -536.65625 215.52734375 C-533.91462265 212.99459555 -531.24129764 210.41301724 -528.625 207.75 C-525.60290754 204.68241368 -522.44838364 201.83391752 -519.18359375 199.02734375 C-516.83758942 196.99241181 -514.5451355 194.90459033 -512.25 192.8125 C-508.01161157 188.99152862 -503.66370897 185.34502669 -499.2265625 181.7578125 C-496.8496519 179.83569539 -494.49574057 177.88784731 -492.1484375 175.9296875 C-483.31932594 168.5751666 -474.36097376 161.46982013 -465.09277344 154.67626953 C-463.74201986 153.68578188 -462.39369431 152.69197431 -461.04785156 151.69482422 C-391.39595136 100.09773683 -312.84192865 60.25278847 0 0 Z M-290.0625 365.1875 C-290.82836426 365.7355127 -291.59422852 366.28352539 -292.38330078 366.84814453 C-301.59685693 373.47310373 -310.59464206 380.24494944 -319.1640625 387.6875 C-321.87463825 390.02546291 -324.63946791 392.26813862 -327.4375 394.5 C-339.16708973 404.09846255 -349.84039962 414.87176091 -360.5625 425.5625 C-361.0810556 426.07837677 -361.59961121 426.59425354 -362.13388062 427.12576294 C-367.99617117 432.96506185 -373.71424834 438.86683895 -379.0625 445.1875 C-379.93942906 446.19720131 -380.8169923 447.20635233 -381.6953125 448.21484375 C-389.17070099 456.9439416 -396.17346884 465.99073947 -403.0625 475.1875 C-403.55282715 475.84041016 -404.0431543 476.49332031 -404.54833984 477.16601562 C-423.36329679 502.28683779 -439.01312943 529.13747988 -453.0625 557.1875 C-453.51431641 558.07260254 -453.96613281 558.95770508 -454.43164062 559.86962891 C-481.92260419 613.78527827 -496.9081183 675.09875843 -502.0625 735.1875 C-502.20389404 736.75697388 -502.20389404 736.75697388 -502.34814453 738.3581543 C-504.9762037 771.58030116 -504.53011097 806.14185878 -500.0625 839.1875 C-499.91684601 840.27146057 -499.91684601 840.27146057 -499.76824951 841.37731934 C-495.2268155 874.75681432 -487.77478713 907.24077011 -477.0625 939.1875 C-476.52737793 940.79262451 -476.52737793 940.79262451 -475.98144531 942.43017578 C-468.70714024 964.01682583 -459.62920273 984.96870762 -449.10498047 1005.171875 C-447.94865169 1007.40762451 -446.8203179 1009.65653864 -445.69140625 1011.90625 C-435.17041157 1032.66475147 -422.89212304 1052.47224264 -409.0625 1071.1875 C-408.28648437 1072.24582031 -407.51046875 1073.30414062 -406.7109375 1074.39453125 C-404.52102183 1077.34666139 -402.30173976 1080.27262755 -400.0625 1083.1875 C-399.43891602 1084.00033447 -399.43891602 1084.00033447 -398.80273438 1084.82958984 C-393.72511998 1091.42860795 -388.52986948 1097.91559654 -383.125 1104.25 C-382.69598389 1104.75450684 -382.26696777 1105.25901367 -381.82495117 1105.77880859 C-372.68574684 1116.3815396 -362.9731878 1126.44334888 -353.06103516 1136.31933594 C-351.29601456 1138.0789348 -349.53648867 1139.84390397 -347.77734375 1141.609375 C-342.04244175 1147.34799897 -336.27916235 1152.96557506 -330.0625 1158.1875 C-329.00593613 1159.09959559 -327.9499218 1160.01232826 -326.89453125 1160.92578125 C-293.99400563 1188.97422418 -257.67341737 1211.84850902 -219.0625 1231.1875 C-218.17739746 1231.63931641 -217.29229492 1232.09113281 -216.38037109 1232.55664062 C-162.46818705 1260.04583727 -101.14913273 1275.0401855 -41.0625 1280.1875 C-39.47453613 1280.32889404 -39.47453613 1280.32889404 -37.85449219 1280.47314453 C-25.52307374 1281.44048426 -13.17527111 1281.43108162 -0.8125 1281.4375 C0.94494034 1281.43851212 0.94494034 1281.43851212 2.73788452 1281.43954468 C22.62142486 1281.42143442 42.20833912 1280.67260135 61.9375 1278.1875 C62.92224304 1278.06375 62.92224304 1278.06375 63.92687988 1277.9375 C153.6100367 1266.52896436 238.6412712 1230.98922415 323.9375 1164.1875 C324.46424316 1163.74712402 324.99098633 1163.30674805 325.53369141 1162.85302734 C338.38388494 1152.07266364 350.55318416 1140.64561136 362.4375 1128.8125 C363.1790332 1128.07563965 363.92056641 1127.3387793 364.68457031 1126.57958984 C369.3070081 1121.9435628 373.67075624 1117.15054382 377.9375 1112.1875 C378.95916455 1111.03098344 379.98255479 1109.87598865 381.0078125 1108.72265625 C389.11004368 1099.54100302 396.62245017 1090.0041534 403.9375 1080.1875 C404.66864014 1079.21248535 404.66864014 1079.21248535 405.41455078 1078.21777344 C420.07431426 1058.64811303 433.03474026 1038.0303835 444.66943359 1016.52685547 C445.51852272 1014.96043806 446.37307206 1013.39696873 447.23291016 1011.83642578 C460.68419551 987.39087015 471.13226996 961.6338971 479.9375 935.1875 C480.29682617 934.11081055 480.65615234 933.03412109 481.02636719 931.92480469 C497.30670099 882.5436263 505.1949872 830.32624265 505.125 778.375 C505.12439575 777.53300049 505.1237915 776.69100098 505.12316895 775.82348633 C505.04880548 737.2669348 499.65728521 699.86397023 491.9375 662.1875 C491.60302808 660.52106146 491.26918782 658.85449493 490.9375 657.1875 C485.89939811 661.4076877 481.17437794 665.81276202 476.54315186 670.47276688 C475.82876357 671.1874993 475.11437529 671.90223172 474.37833887 672.6386227 C471.9877834 675.03154188 469.60084815 677.42803949 467.21386719 679.82452393 C465.48219769 681.55933837 463.75029912 683.29392416 462.01819134 685.028301 C458.25394216 688.79845938 454.4912404 692.57015205 450.72988701 696.34319878 C445.13623197 701.95419335 439.53962424 707.56223577 433.94230279 713.1695726 C425.10016998 722.02758782 416.25964557 730.88720601 407.42013554 739.74783846 C393.38261899 753.81876992 379.33932039 767.88391986 365.29400559 781.94706685 C362.30287391 784.94200931 359.31179423 787.9370037 356.32070827 790.93199182 C352.68959356 794.56783453 349.05847387 798.20367229 345.4273383 801.83949418 C331.73844077 815.54609001 318.05023879 829.25338027 304.36279297 842.96142578 C303.42471219 843.90091158 303.42471219 843.90091158 302.46768029 844.85937689 C282.19445547 865.16306725 261.92810427 885.47360409 241.6647791 905.78717393 C220.81962427 926.68392205 199.96612509 947.57231022 179.10268252 968.45080042 C176.15393592 971.40168791 173.20529175 974.35267774 170.25671387 977.30373383 C169.67644436 977.88448695 169.09617486 978.46524007 168.49832143 979.06359177 C159.1748652 988.39533628 149.86032192 997.73592839 140.54921038 1007.07998859 C131.1838862 1016.47811431 121.80952652 1025.86714903 112.42594618 1035.24704751 C106.85767015 1040.81370003 101.29644172 1046.38717969 95.74525211 1051.9708724 C91.59027627 1056.14862079 87.42216744 1060.31309341 83.24901628 1064.47269091 C81.56962145 1066.15067293 79.89440837 1067.83285364 78.22397757 1069.51975957 C57.58672882 1090.34912688 34.50409922 1105.162897 4.23339844 1105.56787109 C-28.05392474 1105.51717732 -52.01396734 1094.45402953 -74.9108817 1071.61126721 C-76.0165018 1070.50201545 -77.12202543 1069.39266754 -78.22746277 1068.28323364 C-79.42687801 1067.08684425 -80.62672566 1065.89088823 -81.8269642 1064.69532478 C-85.10180091 1061.43072059 -88.37043272 1058.15996661 -91.63800991 1054.88809848 C-95.17157723 1051.35205535 -98.71089257 1047.82177322 -102.24943542 1044.29071045 C-109.17165517 1037.38121498 -116.08841273 1030.46627676 -123.00310083 1023.54924478 C-128.62429976 1017.92626037 -134.24726692 1012.30505009 -139.87148476 1006.6850853 C-140.67296356 1005.88420169 -141.47444236 1005.08331807 -142.30020839 1004.25816526 C-143.92856177 1002.63102368 -145.55691631 1001.00388327 -147.18527202 999.37674402 C-162.44156561 984.13131674 -177.69134588 968.87938721 -192.93915568 953.62547551 C-206.88179344 939.67766664 -220.83263139 925.73809286 -234.78735384 911.80237557 C-249.12762382 897.48148579 -263.46232246 883.15504119 -277.79102689 868.82257926 C-285.83102385 860.7806709 -293.87320229 852.74097376 -301.92122459 844.7070961 C-308.77070169 837.86953589 -315.61489537 831.0267403 -322.45236178 824.17716874 C-325.93907176 820.68457299 -329.42812551 817.19440887 -332.92377472 813.71075821 C-336.12716155 810.51823906 -339.32347247 807.31880514 -342.51441852 804.11385272 C-343.6664029 802.95922395 -344.82089372 801.80708895 -345.9782063 800.65780081 C-363.63062943 783.11925138 -374.28183884 763.82974152 -374.5625 738.625 C-374.48402178 729.34431755 -372.9379895 720.98370226 -370.0625 712.1875 C-369.77375 711.26839844 -369.485 710.34929687 -369.1875 709.40234375 C-362.98649901 691.93434542 -347.94506478 678.9212438 -335.15625 666.12011719 C-334.00974286 664.96896527 -332.86342709 663.81762272 -331.71728516 662.66610718 C-328.64125919 659.57712704 -325.56205119 656.49133973 -322.48178101 653.40659237 C-320.55064561 651.47250247 -318.62008868 649.5378369 -316.68969727 647.60300446 C-310.62914626 641.52883221 -304.56663618 635.45662563 -298.50121307 629.38731837 C-291.53579352 622.41741115 -284.57698076 615.44099487 -277.62378693 608.45889163 C-272.21985142 603.03327933 -266.81010615 597.61350421 -261.39598846 592.19805264 C-258.17450151 588.97552329 -254.95543382 585.75066722 -251.74243164 582.51967621 C-248.72185654 579.48251282 -245.69406597 576.45272611 -242.66082764 573.42821121 C-241.55659706 572.32474489 -240.45487138 571.21876459 -239.35601807 570.10994339 C-223.46629053 554.08468775 -204.37685562 541.17503256 -181.0625 540.1875 C-180.31097656 540.14753906 -179.55945312 540.10757812 -178.78515625 540.06640625 C-155.05282118 539.41251695 -135.16171872 548.94749822 -118.16745949 564.90611458 C-115.03776114 567.94467989 -111.96369014 571.03814314 -108.88989258 574.13305664 C-107.71630152 575.30721333 -106.54226695 576.48092687 -105.36782837 577.65423584 C-102.21326227 580.80823336 -99.06485594 583.96831296 -95.91760468 587.12960744 C-92.61541471 590.44438818 -89.30747506 593.75342146 -86.00016785 597.06309509 C-79.75266937 603.31678399 -73.51028214 609.57554872 -67.26976174 615.83620018 C-60.1587573 622.96963993 -53.04200243 630.09733103 -45.92478335 637.22456944 C-31.29766121 651.87253829 -16.67769564 666.52763194 -2.0625 681.1875 C4.75525225 675.59398978 10.9068767 669.36075353 17.13047791 663.12823486 C18.36962544 661.89095709 19.60898863 660.65389527 20.848548 659.4170301 C24.24405545 656.02762583 27.63644663 652.63511763 31.02831328 649.24207044 C34.69038702 645.57979233 38.35532211 641.92037951 42.01986694 638.26057434 C49.19270287 631.09603565 56.36276668 623.92872896 63.5317341 616.76031956 C69.35513081 610.93739812 75.17931685 605.11526737 81.00406075 599.29369354 C97.51091412 582.79564151 114.01567442 566.29549966 130.51775258 549.79267123 C131.40690644 548.90347742 132.29606029 548.01428361 133.2121582 547.09814453 C134.10239351 546.20786834 134.99262882 545.31759216 135.90984095 544.4003379 C150.36123802 529.94853374 164.81762559 515.50173306 179.27626555 501.05717555 C194.11505895 486.23272129 208.95014586 471.4045669 223.78133875 456.57250857 C232.11115792 448.24235674 240.44252532 439.91376678 248.7778759 431.58914948 C255.86866134 424.50743633 262.9560181 417.42231435 270.03885996 410.332656 C273.65553414 406.71270096 277.27383724 403.09441296 280.89645958 399.48040962 C284.20717668 396.17748903 287.5133152 392.87005866 290.81573875 389.55884632 C292.01632716 388.35670776 293.21863685 387.15628551 294.42275881 385.95768633 C296.04894637 384.3384693 297.66895857 382.71332441 299.28745937 381.0864296 C300.64420416 379.73001087 300.64420416 379.73001087 302.02835792 378.34618974 C304.15832759 376.41810743 304.15832759 376.41810743 303.9375 374.1875 C302.55797523 372.88666261 302.55797523 372.88666261 300.703125 371.60546875 C299.99462402 371.09250244 299.28612305 370.57953613 298.55615234 370.05102539 C297.77449707 369.49793701 296.9928418 368.94484863 296.1875 368.375 C295.37619629 367.7967749 294.56489258 367.2185498 293.72900391 366.62280273 C221.17880671 315.32629767 136.94455227 283.45766003 38.9375 274.1875 C37.7299707 274.10209961 36.52244141 274.01669922 35.27832031 273.92871094 C24.08208577 273.1775248 12.90729098 272.94496283 1.6875 272.9375 C0.29703461 272.93648788 0.29703461 272.93648788 -1.121521 272.93545532 C-93.61386323 273.04097039 -185.04285309 299.2215175 -290.0625 365.1875 Z " fill="#2583FB" transform="translate(1304.0625,222.8125)"/>
<path d="M0 0 C9.11645858 4.38794027 16.56906255 12.32573657 23.87646484 19.21801758 C26.7629948 21.93920426 29.67997418 24.59939546 32.69042969 27.18334961 C37.10952165 31.04189582 41.26889027 35.12450251 45.41015625 39.27734375 C46.18129257 40.04752335 46.95242889 40.81770294 47.74693298 41.61122131 C49.36580153 43.22941373 50.98342551 44.84885212 52.59985352 46.46948242 C55.05568718 48.93067232 57.51681365 51.38647809 59.97851562 53.84179688 C61.56021653 55.42415867 63.14160717 57.00683067 64.72265625 58.58984375 C65.44888687 59.31405014 66.17511749 60.03825653 66.9233551 60.78440857 C70.9428762 64.82217598 74.79499006 68.95220259 78.51026917 73.27215576 C80.57730515 75.66957961 82.72716778 77.9874897 84.875 80.3125 C89.32688655 85.19887998 93.5330313 90.23535543 97.68066406 95.38037109 C99.15464863 97.18984808 100.64990254 98.98033605 102.1484375 100.76953125 C111.16510396 111.55937665 119.67148796 122.67250098 128 134 C128.84111328 135.13888672 128.84111328 135.13888672 129.69921875 136.30078125 C138.52713917 148.27404149 146.87565661 160.53981781 155 173 C155.50885742 173.77923828 156.01771484 174.55847656 156.54199219 175.36132812 C171.46347569 198.31896986 184.62591887 222.31814123 197.22753906 246.609375 C198.35066835 248.75786254 199.49592679 250.89504496 200.67089844 253.015625 C201.14817383 253.89734375 201.62544922 254.7790625 202.1171875 255.6875 C202.53339355 256.43386719 202.94959961 257.18023438 203.37841797 257.94921875 C204 260 204 260 203.25725567 261.89438605 C201.88638939 264.19027163 200.39707818 265.85129376 198.50549126 267.7406044 C197.77696288 268.47311487 197.0484345 269.20562535 196.29782951 269.96033311 C195.49433795 270.75799899 194.69084638 271.55566487 193.86300659 272.37750244 C193.01191885 273.23029903 192.16083111 274.08309562 191.28395283 274.96173453 C188.92053611 277.3278781 186.55270911 279.68944623 184.18292689 282.04920435 C181.62853846 284.59496258 179.07992549 287.14649111 176.53060913 289.69732666 C172.11293308 294.11605183 167.6916075 298.53109795 163.26778793 302.94367218 C156.87168023 309.32353156 150.48109683 315.70890096 144.09185185 322.09563228 C133.72578684 332.45731914 123.3552626 342.81453101 112.98193359 353.16894531 C102.9047223 363.22780092 92.82961196 373.28875322 82.75732422 383.35253906 C82.13655459 383.97278325 81.51578495 384.59302743 80.87620412 385.2320669 C77.76202418 388.34363677 74.64788556 391.45524798 71.53376746 394.56687975 C45.69557917 420.3843318 19.85015354 446.19452863 -6 472 C-8.4071385 469.5928615 -8.69465061 468.04409714 -9.55859375 464.76953125 C-9.85612549 463.67237793 -10.15365723 462.57522461 -10.46020508 461.44482422 C-10.94396606 459.64682373 -10.94396606 459.64682373 -11.4375 457.8125 C-29.03566472 394.55080248 -58.99529423 334.36521804 -100 283 C-100.5038623 282.36610352 -101.00772461 281.73220703 -101.52685547 281.07910156 C-107.65936804 273.38260486 -113.8784117 265.83025739 -120.5859375 258.625 C-121.86439084 257.23483714 -123.13738942 255.83853787 -124.36132812 254.40014648 C-129.87688375 247.92383327 -135.87509071 241.93881555 -141.88671875 235.92797852 C-143.73728967 234.07522532 -145.57970076 232.21461294 -147.421875 230.35351562 C-153.56957157 224.17731574 -159.75364714 218.3036644 -166.61254883 212.91381836 C-169.15630475 210.87470366 -171.54725884 208.71615773 -173.9375 206.5 C-179.32823257 201.57802679 -185.10004664 197.28811043 -191 193 C-189.64698836 189.98202605 -188.13770945 187.88852043 -185.8022213 185.55612564 C-184.80870551 184.5566367 -184.80870551 184.5566367 -183.79511869 183.53695607 C-183.06555514 182.81321821 -182.3359916 182.08948035 -181.58432007 181.34381104 C-180.81081982 180.56860194 -180.03731958 179.79339284 -179.24037993 178.99469256 C-176.63943379 176.39044423 -174.03138892 173.79342265 -171.42333984 171.19628906 C-169.56056859 169.33408177 -167.69819726 167.47148247 -165.83631897 165.60838318 C-161.82297975 161.59399507 -157.80599382 157.58328616 -153.78651047 153.57505035 C-147.9750138 147.77980518 -142.16904516 141.9790477 -136.3644125 136.17692837 C-126.94671905 126.76361257 -117.52456758 117.35477211 -108.09960938 107.94873047 C-98.94394695 98.81142502 -89.79038667 89.67202214 -80.63964844 80.52978516 C-80.07563172 79.96629389 -79.511615 79.40280262 -78.93050687 78.82223585 C-76.10102429 75.99536334 -73.27158301 73.16844948 -70.44216228 70.34151506 C-46.9678424 46.88792988 -23.48628677 23.44160169 0 0 Z " fill="#0066DA" transform="translate(1802,406)"/>
</svg>
