<?xml version="1.0" encoding="UTF-8"?>
<svg version="1.1" xmlns="http://www.w3.org/2000/svg" width="491" height="508">
<path d="M0 0 C0.9496156 -0.00159115 1.89923119 -0.00318229 2.87762302 -0.00482166 C3.92808892 -0.00142847 4.97855481 0.00196472 6.060853 0.00546074 C7.1711714 0.00516204 8.28148979 0.00486334 9.4254542 0.00455558 C13.17117357 0.00491334 16.9168419 0.01260206 20.66255283 0.0203228 C23.33774967 0.02228049 26.01294476 0.02386962 28.68814182 0.0250988 C36.73338574 0.03019074 44.77859903 0.04526162 52.82382593 0.06202728 C55.09481408 0.06669024 57.36580259 0.07108522 59.63679147 0.07538176 C73.72999915 0.10205238 87.8231961 0.13186512 101.91637421 0.1713562 C105.18137635 0.18045725 108.44637858 0.18952728 111.71138096 0.19854546 C112.52291024 0.20079002 113.33443953 0.20303458 114.17056061 0.20534717 C127.32779317 0.24117071 140.48496682 0.25643878 153.64224308 0.26330294 C167.14038836 0.27069262 180.63839589 0.29679865 194.13647085 0.34125125 C201.71936213 0.36574491 209.30207442 0.38186419 216.88500881 0.37698555 C223.34049525 0.37287903 229.79566686 0.38557714 236.25106495 0.42054673 C239.5467448 0.43787417 242.84182085 0.44430973 246.13754749 0.43453598 C249.70586032 0.4252372 253.27270686 0.44635263 256.8408823 0.47543144 C257.88911747 0.4654403 258.93735265 0.45544916 260.01735252 0.44515526 C262.61554841 0.48350605 264.98026397 0.54833689 267.51435947 1.12139702 C271.92709004 6.08522885 271.72925406 12.74184529 271.41670322 19.11163139 C270.82478448 27.34537288 269.58777538 34.68403883 266.47920322 42.36749077 C264.5982737 47.73613576 263.5209724 53.43428425 263.51435947 59.12139702 C264.00770283 60.10812401 264.50104618 61.094851 265.00933933 62.11147881 C267.25887866 67.16925409 266.77604898 72.20516543 266.59077549 77.63946342 C266.5356413 80.1394118 266.4805442 82.63936099 266.42547703 85.13931084 C266.38979551 86.51507225 266.35352461 87.89081849 266.31671047 89.26655006 C266.11058259 97.10547551 265.98038936 104.94599799 265.84687901 112.78643608 C265.83155955 113.66577049 265.81624009 114.5451049 265.8004564 115.45108581 C265.34909894 141.87627519 265.40540454 168.30466383 265.41598409 194.73285949 C265.41718295 198.12868102 265.41761504 201.52450264 265.41812611 204.92032433 C265.42065398 219.48508125 265.42883549 234.04982979 265.44062836 248.61458197 C265.44931581 259.36441181 265.45549687 270.11424016 265.45942783 280.8640728 C265.45969056 281.58048307 265.45995328 282.29689334 265.46022397 283.03501301 C265.46152982 286.63215011 265.46279334 290.22928723 265.46403587 293.82642436 C265.47425615 323.25808654 265.49181309 352.68974164 265.51435947 382.12139702 C261.81401645 382.97663019 258.40124338 383.24519311 254.60678196 383.24186516 C252.82274432 383.24383935 252.82274432 383.24383935 251.00266552 383.24585342 C249.70078478 383.24208506 248.39890404 383.23831669 247.05757236 383.23443413 C245.65893343 383.23384643 244.26029428 383.23366264 242.86165524 383.23384857 C239.02592015 383.23290911 235.19022333 383.22533564 231.35449958 383.21638417 C228.07609973 383.20944498 224.79769958 383.20607884 221.51929456 383.20256919 C182.2629864 383.15879018 143.00701823 382.95572507 103.75139105 382.73255765 C95.79396495 382.68772578 87.83651813 382.64811263 79.87906021 382.6094051 C72.06345979 382.57114637 64.24788433 382.52924603 56.43231827 382.48451847 C51.82601559 382.45822273 47.21971706 382.43336252 42.61338711 382.412323 C38.3418504 382.39270501 34.07036314 382.36854719 29.79887104 382.34090614 C28.24325479 382.33160458 26.68762796 382.32390511 25.1319952 382.31797791 C9.12198099 382.25507433 9.12198099 382.25507433 2.51435947 381.12139702 C1.37135335 378.83538476 1.39095957 377.58516236 1.39410496 375.0454874 C1.39273061 374.18679166 1.39135626 373.32809593 1.38994026 372.4433791 C1.39353522 371.4939724 1.39713018 370.54456569 1.40083408 369.56638908 C1.4006108 368.05885857 1.4006108 368.05885857 1.400383 366.52087289 C1.40108144 363.12752092 1.40894342 359.73422208 1.41670322 356.34087944 C1.41862183 353.91382693 1.4200859 351.48677403 1.42112827 349.05972099 C1.42430197 343.8057122 1.43048447 338.55171964 1.43919468 333.29771805 C1.45182318 325.61744819 1.45784575 317.93718342 1.46212804 310.25690488 C1.46921738 297.6857713 1.48001292 285.11464405 1.49385166 272.54351616 C1.49467947 271.79027584 1.49550729 271.03703552 1.49636018 270.26096974 C1.50388507 263.44656704 1.5116569 256.63216464 1.51956272 249.81776237 C1.56833835 207.77058103 1.59511835 165.72366021 1.5203104 123.67648792 C1.5145594 120.24083003 1.51000774 116.80517266 1.50581455 113.36951256 C1.49049525 101.89391997 1.45111815 90.41903871 1.3607645 78.94377899 C1.336152 75.73610652 1.32232621 72.52870567 1.31907749 69.32094193 C1.31491929 65.7059312 1.2875849 62.09188116 1.24099064 58.47717452 C1.22243235 56.62131303 1.22717002 54.76526119 1.23329258 52.90931702 C1.10351923 45.55336001 -0.35403403 39.87250119 -3.36906338 33.15223789 C-5.34008438 27.80209168 -5.01571815 22.43578903 -4.79814053 16.80889702 C-4.77558193 15.67516655 -4.75302334 14.54143608 -4.72978115 13.37335014 C-4.67171937 10.6212218 -4.59013773 7.87208492 -4.48564053 5.12139702 C-5.14564053 5.12139702 -5.80564053 5.12139702 -6.48564053 5.12139702 C-6.48564053 3.80139702 -6.48564053 2.48139702 -6.48564053 1.12139702 C-4.10210298 -0.07037175 -2.6602479 -0.00228322 0 0 Z " fill="#D7DADF" transform="translate(107.48564052581787,47.87860298156738)"/>
<path d="M0 0 C0.9496156 -0.00159115 1.89923119 -0.00318229 2.87762302 -0.00482166 C3.92808892 -0.00142847 4.97855481 0.00196472 6.060853 0.00546074 C7.1711714 0.00516204 8.28148979 0.00486334 9.4254542 0.00455558 C13.17117357 0.00491334 16.9168419 0.01260206 20.66255283 0.0203228 C23.33774967 0.02228049 26.01294476 0.02386962 28.68814182 0.0250988 C36.73338574 0.03019074 44.77859903 0.04526162 52.82382593 0.06202728 C55.09481408 0.06669024 57.36580259 0.07108522 59.63679147 0.07538176 C73.72999915 0.10205238 87.8231961 0.13186512 101.91637421 0.1713562 C105.18137635 0.18045725 108.44637858 0.18952728 111.71138096 0.19854546 C112.52291024 0.20079002 113.33443953 0.20303458 114.17056061 0.20534717 C127.32779317 0.24117071 140.48496682 0.25643878 153.64224308 0.26330294 C167.14038836 0.27069262 180.63839589 0.29679865 194.13647085 0.34125125 C201.71936213 0.36574491 209.30207442 0.38186419 216.88500881 0.37698555 C223.34049525 0.37287903 229.79566686 0.38557714 236.25106495 0.42054673 C239.5467448 0.43787417 242.84182085 0.44430973 246.13754749 0.43453598 C249.70586032 0.4252372 253.27270686 0.44635263 256.8408823 0.47543144 C257.88911747 0.4654403 258.93735265 0.45544916 260.01735252 0.44515526 C262.61554841 0.48350605 264.98026397 0.54833689 267.51435947 1.12139702 C271.92709004 6.08522885 271.72925406 12.74184529 271.41670322 19.11163139 C270.79312623 27.78574721 270.05217286 37.51388634 265.51435947 45.12139702 C263.21890598 46.63639633 261.15248318 47.21792845 258.48310947 47.92999077 C254.81520364 49.40197929 253.95978557 50.79370596 252.01435947 54.18389702 C251.42783604 55.16745171 250.8413126 56.15100639 250.23701572 57.16436577 C249.38430088 58.62809624 249.38430088 58.62809624 248.51435947 60.12139702 C245.10544525 65.67257155 242.05478707 70.5432042 236.51435947 74.12139702 C233.26435947 74.55889702 233.26435947 74.55889702 230.51435947 74.12139702 C228.51435947 72.12139702 228.51435947 72.12139702 227.82685947 69.12139702 C227.95218469 63.13085166 233.54781936 59.04813907 237.51435947 55.12139702 C238.36127354 54.25514702 238.36127354 54.25514702 239.22529697 53.37139702 C240.3057518 52.27220598 241.40677849 51.19324959 242.51435947 50.12139702 C235.58435947 49.62639702 235.58435947 49.62639702 228.51435947 49.12139702 C228.18435947 50.77139702 227.85435947 52.42139702 227.51435947 54.12139702 C225.77452848 56.99613316 223.64632245 59.52832246 221.51435947 62.12139702 C220.58623447 63.32795952 220.58623447 63.32795952 219.63935947 64.55889702 C216.35173317 66.9762693 213.5754396 66.92801225 209.51435947 67.12139702 C208.52435947 66.79139702 207.53435947 66.46139702 206.51435947 66.12139702 C206.38935947 58.49639702 206.38935947 58.49639702 207.51435947 55.12139702 C206.94717197 55.27995171 206.37998447 55.43850639 205.79560947 55.60186577 C201.0422322 56.68439861 196.28317516 57.18268643 192.01435947 54.62139702 C189.90161769 51.10016072 189.78674428 48.20716918 189.51435947 44.12139702 C188.40576572 44.07241264 187.29717197 44.02342827 186.15498447 43.97295952 C184.69141883 43.89790487 183.22787835 43.82235821 181.76435947 43.74639702 C181.0347501 43.71545952 180.30514072 43.68452202 179.55342197 43.65264702 C172.5780539 43.2721724 172.5780539 43.2721724 169.51435947 41.12139702 C169.18435947 40.46139702 168.85435947 39.80139702 168.51435947 39.12139702 C167.52435947 39.61639702 167.52435947 39.61639702 166.51435947 40.12139702 C165.85435947 39.79139702 165.19435947 39.46139702 164.51435947 39.12139702 C159.86159971 38.81613482 159.86159971 38.81613482 155.51435947 40.12139702 C155.51435947 39.46139702 155.51435947 38.80139702 155.51435947 38.12139702 C138.02435947 38.45139702 120.53435947 38.78139702 102.51435947 39.12139702 C101.85435947 40.44139702 101.19435947 41.76139702 100.51435947 43.12139702 C97.41696299 43.96614151 94.71903306 44.12566105 91.51435947 44.05889702 C88.16540496 44.1286669 85.64549541 44.98280213 82.51435947 46.12139702 C81.85435947 46.12139702 81.19435947 46.12139702 80.51435947 46.12139702 C80.43185947 47.21452202 80.34935947 48.30764702 80.26435947 49.43389702 C79.51435947 53.12139702 79.51435947 53.12139702 77.85810947 54.84014702 C74.82728334 56.49699864 72.69707484 56.42083339 69.26435947 56.30889702 C67.6478751 56.26829155 67.6478751 56.26829155 65.99873447 56.22686577 C65.17889072 56.19206108 64.35904697 56.15725639 63.51435947 56.12139702 C64.00935947 60.57639702 64.00935947 60.57639702 64.51435947 65.12139702 C60.94956102 67.49792932 59.71859662 67.68735202 55.51435947 67.12139702 C49.3755402 64.27320609 45.62820452 58.96246876 42.51435947 53.12139702 C42.01935947 51.14139702 42.01935947 51.14139702 41.51435947 49.12139702 C36.89435947 49.45139702 32.27435947 49.78139702 27.51435947 50.12139702 C29.08185947 51.50327202 30.64935947 52.88514702 32.26435947 54.30889702 C40.75417848 61.79334272 40.75417848 61.79334272 42.51435947 67.18389702 C42.51435947 70.12139702 42.51435947 70.12139702 40.95185947 72.55889702 C38.51435947 74.12139702 38.51435947 74.12139702 35.57685947 74.12139702 C27.0531695 71.33815131 23.88271399 63.54422774 19.89326572 56.09405327 C16.94237336 50.57968941 16.94237336 50.57968941 12.06904697 46.98467827 C9.84904109 46.49405001 7.7841263 46.18830624 5.51435947 46.12139702 C5.81471104 46.78526421 6.1150626 47.44913139 6.42451572 48.13311577 C6.80478916 49.01612358 7.1850626 49.89913139 7.57685947 50.80889702 C7.95971104 51.67901421 8.3425626 52.54913139 8.73701572 53.44561577 C9.61389429 56.46401686 9.42701053 58.143547 8.51435947 61.12139702 C8.01935947 61.61639702 8.01935947 61.61639702 7.51435947 62.12139702 C5.86435947 62.12139702 4.21435947 62.12139702 2.51435947 62.12139702 C2.51435947 55.85139702 2.51435947 49.58139702 2.51435947 43.12139702 C4.49435947 43.12139702 6.47435947 43.12139702 8.51435947 43.12139702 C7.85435947 42.46139702 7.19435947 41.80139702 6.51435947 41.12139702 C6.51435947 39.80139702 6.51435947 38.48139702 6.51435947 37.12139702 C4.20435947 37.12139702 1.89435947 37.12139702 -0.48564053 37.12139702 C-2.83793435 33.44593792 -2.48564053 30.39365376 -2.48564053 26.12139702 C-3.00353352 24.53534971 -3.52149177 22.94932351 -4.04032803 21.36358452 C-5.09236734 16.06647431 -4.61985946 10.49761086 -4.48564053 5.12139702 C-5.14564053 5.12139702 -5.80564053 5.12139702 -6.48564053 5.12139702 C-6.48564053 3.80139702 -6.48564053 2.48139702 -6.48564053 1.12139702 C-4.10210298 -0.07037175 -2.6602479 -0.00228322 0 0 Z " fill="#D3D5D9" transform="translate(107.48564052581787,47.87860298156738)"/>
<path d="M0 0 C-2.34723938 2.68475092 -4.56471634 3.84717014 -7.875 5.125 C-8.71804687 5.45757812 -9.56109375 5.79015625 -10.4296875 6.1328125 C-12.94301613 6.98077444 -15.39015331 7.54163983 -18 8 C-9.65667456 9.19190363 -1.40676978 9.09283549 7 9 C8.32 6.03 9.64 3.06 11 0 C13.97 0 16.94 0 20 0 C20 0.66 20 1.32 20 2 C22.70860124 1.85823579 25.41680752 1.71171784 28.125 1.5625 C28.88554687 1.52318359 29.64609375 1.48386719 30.4296875 1.44335938 C31.17734375 1.40146484 31.925 1.35957031 32.6953125 1.31640625 C33.37609863 1.27974854 34.05688477 1.24309082 34.75830078 1.20532227 C37.11859216 1.02266597 37.11859216 1.02266597 39.890625 0.47265625 C43.04649812 -0.00706818 45.8699683 -0.02665096 49.0546875 0.12109375 C50.16328125 0.16943359 51.271875 0.21777344 52.4140625 0.26757812 C54.12722656 0.35168945 54.12722656 0.35168945 55.875 0.4375 C57.62296875 0.51581055 57.62296875 0.51581055 59.40625 0.59570312 C62.27113925 0.72485797 65.13563347 0.85980182 68 1 C67.171875 3.44921875 67.171875 3.44921875 66 6 C62.88862065 6.91927117 60.23430866 7.00488143 57 6.9375 C53.65104548 7.00726989 51.13113593 7.86140511 48 9 C47.34 9 46.68 9 46 9 C45.9175 10.093125 45.835 11.18625 45.75 12.3125 C45 16 45 16 43.34375 17.71875 C40.31292386 19.37560162 38.18271536 19.29943637 34.75 19.1875 C33.13351563 19.14689453 33.13351563 19.14689453 31.484375 19.10546875 C30.66453125 19.07066406 29.8446875 19.03585938 29 19 C29.495 23.455 29.495 23.455 30 28 C26.43520155 30.3765323 25.20423715 30.565955 21 30 C14.86118072 27.15180907 11.11384504 21.84107174 8 16 C7.505 14.02 7.505 14.02 7 12 C2.38 12.33 -2.24 12.66 -7 13 C-5.4325 14.381875 -3.865 15.76375 -2.25 17.1875 C6.239819 24.6719457 6.239819 24.6719457 8 30.0625 C8 33 8 33 6.4375 35.4375 C4 37 4 37 1.0625 37 C-7.46118998 34.21675429 -10.63164549 26.42283072 -14.62109375 18.97265625 C-17.57198612 13.45829239 -17.57198612 13.45829239 -22.4453125 9.86328125 C-24.66531838 9.37265299 -26.73023317 9.06690923 -29 9 C-28.69964844 9.66386719 -28.39929688 10.32773438 -28.08984375 11.01171875 C-27.70957031 11.89472656 -27.32929687 12.77773437 -26.9375 13.6875 C-26.55464844 14.55761719 -26.17179687 15.42773438 -25.77734375 16.32421875 C-24.90046518 19.34261984 -25.08734894 21.02214999 -26 24 C-26.33 24.33 -26.66 24.66 -27 25 C-28.65 25 -30.3 25 -32 25 C-32 18.73 -32 12.46 -32 6 C-29.710625 6.185625 -29.710625 6.185625 -27.375 6.375 C-24.59350027 6.47406119 -24.59350027 6.47406119 -22 6 C-20.65797335 4.46625526 -19.31817327 2.92879945 -18.046875 1.3359375 C-13.2483549 -1.79592104 -5.55568168 -0.35630263 0 0 Z " fill="#6A9361" transform="translate(142,85)"/>
<path d="M0 0 C0.61875 0.474375 1.2375 0.94875 1.875 1.4375 C3.90705546 3.02417441 3.90705546 3.02417441 6 4 C6 4.66 6 5.32 6 6 C15.24 6 24.48 6 34 6 C35.32 8.64 36.64 11.28 38 14 C50.53172217 14.14236956 50.53172217 14.14236956 63 13 C61.28490234 12.49339844 61.28490234 12.49339844 59.53515625 11.9765625 C58.04414843 11.52644693 56.55326959 11.07590397 55.0625 10.625 C54.30775391 10.40328125 53.55300781 10.1815625 52.77539062 9.953125 C50.83152088 9.36037548 48.91313548 8.68548828 47 8 C46.505 7.01 46.505 7.01 46 6 C48.56428515 5.86440325 51.12135216 5.76566812 53.6875 5.6875 C54.7693457 5.6246582 54.7693457 5.6246582 55.87304688 5.56054688 C60.07901403 5.46452023 61.48502729 5.5486756 64.78125 8.4375 C65.5134375 9.283125 66.245625 10.12875 67 11 C68.93547777 11.97510428 68.93547777 11.97510428 70.8125 12.3125 C71.864375 12.539375 72.91625 12.76625 74 13 C71.6735491 14.25270433 69.64678098 15.09089503 67.0703125 15.75390625 C63.33762312 17.26882726 62.48097746 18.61035545 60.5 22.0625 C59.91347656 23.04605469 59.32695312 24.02960938 58.72265625 25.04296875 C58.15417969 26.01878906 57.58570313 26.99460937 57 28 C53.59108578 33.55117453 50.54042759 38.42180718 45 42 C41.75 42.4375 41.75 42.4375 39 42 C37 40 37 40 36.3125 37 C36.43782522 31.00945464 42.03345989 26.92674205 46 23 C46.84691406 22.13375 46.84691406 22.13375 47.7109375 21.25 C48.79139233 20.15080896 49.89241901 19.07185257 51 18 C44.07 17.505 44.07 17.505 37 17 C36.505 19.475 36.505 19.475 36 22 C34.260169 24.87473614 32.13196298 27.40692544 30 30 C29.38125 30.804375 28.7625 31.60875 28.125 32.4375 C24.8373737 34.85487228 22.06108013 34.80661523 18 35 C17.01 34.67 16.02 34.34 15 34 C14.875 26.375 14.875 26.375 16 23 C15.4328125 23.15855469 14.865625 23.31710938 14.28125 23.48046875 C9.52787272 24.56300159 4.76881568 25.06128941 0.5 22.5 C-1.61274178 18.9787637 -1.72761519 16.08577216 -2 12 C-3.66289062 11.92652344 -3.66289062 11.92652344 -5.359375 11.8515625 C-6.82294065 11.77650785 -8.28648112 11.70096119 -9.75 11.625 C-10.47960937 11.5940625 -11.20921875 11.563125 -11.9609375 11.53125 C-15.73942656 11.3251506 -18.77946668 11.08487157 -22 9 C-22 8.01 -22 7.02 -22 6 C-15.4 6 -8.8 6 -2 6 C-2 4.35 -2 2.7 -2 1 C-1.34 0.67 -0.68 0.34 0 0 Z " fill="#4A824B" transform="translate(299,80)"/>
<path d="M0 0 C0.8971875 0.5259375 0.8971875 0.5259375 1.8125 1.0625 C1.4825 1.7225 1.1525 2.3825 0.8125 3.0625 C3.22924224 3.08955308 5.6456794 3.10936438 8.0625 3.125 C9.08537109 3.13756836 9.08537109 3.13756836 10.12890625 3.15039062 C13.53193941 3.1669102 16.54576318 3.01404949 19.8125 2.0625 C20.8025 2.0625 21.7925 2.0625 22.8125 2.0625 C24.50048827 0.62499809 24.50048827 0.62499809 25.8125 -0.9375 C26.63888376 1.95484315 26.8125 3.94992431 26.8125 7.0625 C27.1425 6.4025 27.4725 5.7425 27.8125 5.0625 C35.61477708 2.62964712 42.7786503 1.53883885 50.8125 3.0625 C51.1425 1.7425 51.4725 0.4225 51.8125 -0.9375 C52.8025 -0.2775 53.7925 0.3825 54.8125 1.0625 C56.1325 0.4025 57.4525 -0.2575 58.8125 -0.9375 C58.8125 0.39583333 58.8125 1.72916667 58.8125 3.0625 C61.1225 3.3925 63.4325 3.7225 65.8125 4.0625 C65.1525 6.3725 64.4925 8.6825 63.8125 11.0625 C60.625 11.375 60.625 11.375 56.8125 11.0625 C56.07 10.2375 55.3275 9.4125 54.5625 8.5625 C51.53892717 5.81379743 50.06585409 5.52488008 46.04101562 5.62304688 C45.03071289 5.68588867 45.03071289 5.68588867 44 5.75 C43.30712891 5.77255859 42.61425781 5.79511719 41.90039062 5.81835938 C40.20348427 5.87687339 38.50770139 5.9665452 36.8125 6.0625 C38.49279297 6.56910156 38.49279297 6.56910156 40.20703125 7.0859375 C41.67976636 7.53620046 43.15241831 7.98673553 44.625 8.4375 C45.36298828 8.65921875 46.10097656 8.8809375 46.86132812 9.109375 C47.57353516 9.32851562 48.28574219 9.54765625 49.01953125 9.7734375 C49.6741333 9.97243652 50.32873535 10.17143555 51.00317383 10.37646484 C52.8125 11.0625 52.8125 11.0625 55.8125 13.0625 C46.45337671 14.05513429 37.20855802 14.16981538 27.8125 14.0625 C26.4925 11.4225 25.1725 8.7825 23.8125 6.0625 C22.67820557 6.08606567 22.67820557 6.08606567 21.52099609 6.11010742 C18.07657424 6.17268047 14.63227226 6.21156205 11.1875 6.25 C9.40279297 6.28770508 9.40279297 6.28770508 7.58203125 6.32617188 C-3.30918962 6.41743909 -3.30918962 6.41743909 -8.1875 3.0625 C-5.67391791 0.30952914 -3.81682031 -1.63578013 0 0 Z " fill="#B8BFBF" transform="translate(309.1875,80.9375)"/>
<path d="M0 0 C0.33 0.66 0.66 1.32 1 2 C3.31 2 5.62 2 8 2 C8.33 2.99 8.66 3.98 9 5 C8.01 5 7.02 5 6 5 C6 10.28 6 15.56 6 21 C-0.73087819 22.12181303 -0.73087819 22.12181303 -4.6875 21.5625 C-7.193124 21.2206273 -9.45977221 21 -12 21 C-12.99 21 -13.98 21 -15 21 C-15 14.73 -15 8.46 -15 2 C-13.68 2.33 -12.36 2.66 -11 3 C-11 3.66 -11 4.32 -11 5 C-10.484375 4.54625 -9.96875 4.0925 -9.4375 3.625 C-6.42699426 1.61799617 -3.49072763 0.87268191 0 0 Z " fill="#D8D8DB" transform="translate(281,121)"/>
<path d="M0 0 C0.61875 0.474375 1.2375 0.94875 1.875 1.4375 C3.90705546 3.02417441 3.90705546 3.02417441 6 4 C6.34342449 5.33076989 6.67619874 6.66431979 7 8 C7.66 8.66 8.32 9.32 9 10 C8.01 10.33 7.02 10.66 6 11 C6.33 11.66 6.66 12.32 7 13 C8.32 13 9.64 13 11 13 C13.25 14 13.25 14 15 15 C15 15.66 15 16.32 15 17 C16.98 17.33 18.96 17.66 21 18 C17.60976165 21.7669315 14.91093101 23.65569633 9.8203125 24.2578125 C6.10342394 24.4406103 3.73498572 24.44099143 0.5 22.5 C-1.61274178 18.9787637 -1.72761519 16.08577216 -2 12 C-3.66289062 11.92652344 -3.66289062 11.92652344 -5.359375 11.8515625 C-6.82294065 11.77650785 -8.28648112 11.70096119 -9.75 11.625 C-10.47960937 11.5940625 -11.20921875 11.563125 -11.9609375 11.53125 C-15.73942656 11.3251506 -18.77946668 11.08487157 -22 9 C-22 8.01 -22 7.02 -22 6 C-15.4 6 -8.8 6 -2 6 C-2 4.35 -2 2.7 -2 1 C-1.34 0.67 -0.68 0.34 0 0 Z " fill="#609357" transform="translate(299,80)"/>
<path d="M0 0 C9.57 0.33 19.14 0.66 29 1 C28.34 2.65 27.68 4.3 27 6 C23.88862065 6.91927117 21.23430866 7.00488143 18 6.9375 C14.65104548 7.00726989 12.13113593 7.86140511 9 9 C8.34 9 7.68 9 7 9 C6.9175 10.093125 6.835 11.18625 6.75 12.3125 C6 16 6 16 4.34375 17.71875 C1.31292386 19.37560162 -0.81728464 19.29943637 -4.25 19.1875 C-5.32765625 19.16042969 -6.4053125 19.13335937 -7.515625 19.10546875 C-8.33546875 19.07066406 -9.1553125 19.03585938 -10 19 C-9.67 21.97 -9.34 24.94 -9 28 C-10.65 28.66 -12.3 29.32 -14 30 C-14 23 -14 23 -12.4375 20.5625 C-10.74414176 18.14608941 -10.74414176 18.14608941 -11.3125 15.6875 C-11.539375 15.130625 -11.76625 14.57375 -12 14 C-10.68 13.67 -9.36 13.34 -8 13 C-8 12.01 -8 11.02 -8 10 C-5.69 10 -3.38 10 -1 10 C-0.34 8.02 0.32 6.04 1 4 C0.34 3.67 -0.32 3.34 -1 3 C-0.34 2.67 0.32 2.34 1 2 C0.67 1.34 0.34 0.68 0 0 Z " fill="#679977" transform="translate(181,85)"/>
<path d="M0 0 C2.97 0 5.94 0 9 0 C9 0.66 9 1.32 9 2 C19.395 1.505 19.395 1.505 30 1 C29.34 3.64 28.68 6.28 28 9 C28.495 9.99 28.495 9.99 29 11 C28.35933594 10.98839844 27.71867187 10.97679688 27.05859375 10.96484375 C21.91346778 10.91116881 17.06975076 11.11830422 12 12 C12.495 13.485 12.495 13.485 13 15 C11.79472656 14.51917969 10.58945313 14.03835937 9.34765625 13.54296875 C3.12301759 11.4680892 -3.05236957 11.4385955 -9.5625 11.3125 C-10.76197266 11.27833984 -11.96144531 11.24417969 -13.19726562 11.20898438 C-16.13141684 11.12715546 -19.06529364 11.0577937 -22 11 C-22 10.67 -22 10.34 -22 10 C-16.06 9.67 -10.12 9.34 -4 9 C-2.68 6.03 -1.36 3.06 0 0 Z " fill="#466F45" transform="translate(153,85)"/>
<path d="M0 0 C9.9 0 19.8 0 30 0 C31.32 2.64 32.64 5.28 34 8 C39.94 8.33 45.88 8.66 52 9 C52 9.33 52 9.66 52 10 C50.85168701 10.00616333 50.85168701 10.00616333 49.68017578 10.01245117 C46.1610364 10.0456506 42.64356816 10.11632564 39.125 10.1875 C37.31902344 10.19620117 37.31902344 10.19620117 35.4765625 10.20507812 C28.25594758 10.38166925 23.11467818 11.28055707 16.88623047 15.0324707 C16.26377441 15.35175537 15.64131836 15.67104004 15 16 C14.34 15.67 13.68 15.34 13 15 C13.99 14.34 14.98 13.68 16 13 C13.525 12.01 13.525 12.01 11 11 C11 10.34 11 9.68 11 9 C8.69 9 6.38 9 4 9 C4.66 8.34 5.32 7.68 6 7 C4.68 7.33 3.36 7.66 2 8 C2 7.01 2 6.02 2 5 C2.66 4.67 3.32 4.34 4 4 C2.68 2.68 1.36 1.36 0 0 Z " fill="#386D32" transform="translate(303,86)"/>
<path d="M0 0 C0.33 0.99 0.66 1.98 1 3 C0.34 3 -0.32 3 -1 3 C-1.33 3.99 -1.66 4.98 -2 6 C-1.34 6.66 -0.68 7.32 0 8 C-0.66 8 -1.32 8 -2 8 C-2.12375 8.598125 -2.2475 9.19625 -2.375 9.8125 C-3 12 -3 12 -5 15 C-4.01 15.99 -3.02 16.98 -2 18 C-2.99 18 -3.98 18 -5 18 C-5 18.66 -5 19.32 -5 20 C-9.93671939 19.54077029 -12.48613375 18.51386625 -16 15 C-19.45935061 10.5078821 -22.15676305 6.69184942 -23 1 C-16.79029227 0.66733709 -12.71735105 1.54970669 -7 4 C-7.33 3.01 -7.66 2.02 -8 1 C-5.36 0.67 -2.72 0.34 0 0 Z " fill="#5E9968" transform="translate(172,95)"/>
<path d="M0 0 C1.66611905 -0.042721 3.33382885 -0.04063832 5 0 C5.33 0.33 5.66 0.66 6 1 C11.11509204 1.20877927 15.95052873 0.70869772 21 0 C21.33 0.66 21.66 1.32 22 2 C24.12576782 2.46651207 24.12576782 2.46651207 26.5625 2.625 C28.026875 2.74875 29.49125 2.8725 31 3 C29.68 6.3 28.36 9.6 27 13 C17.60394198 13.10731538 8.35912329 12.99263429 -1 12 C2.17165648 9.88556235 4.79100867 9.05959339 8.4375 8 C12.15014906 6.91872792 15.6057583 5.86808388 19 4 C10.05645538 3.02559185 10.05645538 3.02559185 1.73828125 5.3359375 C-0.01102188 7.14637718 -0.01102188 7.14637718 -2 10 C-2.66 10 -3.32 10 -4 10 C-4 9.34 -4 8.68 -4 8 C-3.34 8 -2.68 8 -2 8 C-2 7.34 -2 6.68 -2 6 C-3.32 5.67 -4.64 5.34 -6 5 C-6 4.34 -6 3.68 -6 3 C-5.195625 2.87625 -4.39125 2.7525 -3.5625 2.625 C-2.716875 2.41875 -1.87125 2.2125 -1 2 C-0.67 1.34 -0.34 0.68 0 0 Z " fill="#C0CAC4" transform="translate(122,82)"/>
<path d="M0 0 C-2.34723938 2.68475092 -4.56471634 3.84717014 -7.875 5.125 C-8.71804687 5.45757812 -9.56109375 5.79015625 -10.4296875 6.1328125 C-12.94301613 6.98077444 -15.39015331 7.54163983 -18 8 C-17.34 8.66 -16.68 9.32 -16 10 C-14.96514123 12.31808364 -13.9644586 14.65175298 -13 17 C-12.67 17.66 -12.34 18.32 -12 19 C-15.19793185 17.85788148 -15.97583552 17.04295908 -17.6875 14 C-20.60231221 10.218622 -22.62210899 9.97507239 -27.171875 9.2265625 C-27.77515625 9.15179688 -28.3784375 9.07703125 -29 9 C-28.69964844 9.66386719 -28.39929688 10.32773438 -28.08984375 11.01171875 C-27.70957031 11.89472656 -27.32929687 12.77773437 -26.9375 13.6875 C-26.55464844 14.55761719 -26.17179687 15.42773438 -25.77734375 16.32421875 C-24.90046518 19.34261984 -25.08734894 21.02214999 -26 24 C-26.33 24.33 -26.66 24.66 -27 25 C-28.65 25 -30.3 25 -32 25 C-32 18.73 -32 12.46 -32 6 C-29.710625 6.185625 -29.710625 6.185625 -27.375 6.375 C-24.59350027 6.47406119 -24.59350027 6.47406119 -22 6 C-20.65797335 4.46625526 -19.31817327 2.92879945 -18.046875 1.3359375 C-13.2483549 -1.79592104 -5.55568168 -0.35630263 0 0 Z " fill="#59916A" transform="translate(142,85)"/>
<path d="M0 0 C0.33 0.66 0.66 1.32 1 2 C3.31 2 5.62 2 8 2 C8.33 2.99 8.66 3.98 9 5 C8.01 5 7.02 5 6 5 C6 10.28 6 15.56 6 21 C0 22 0 22 -3 20 C-2.7525 19.29875 -2.505 18.5975 -2.25 17.875 C-1.90102248 13.86175855 -3.73684645 12.2232793 -6 9 C-6 7.68 -6 6.36 -6 5 C-4.02 5.495 -4.02 5.495 -2 6 C-3.25541557 3.48916886 -4.50063488 3.12874554 -7 2 C-4.69 1.34 -2.38 0.68 0 0 Z " fill="#D5D7DB" transform="translate(281,121)"/>
<path d="M0 0 C2.375 0.9375 2.375 0.9375 4.375 3.9375 C5.01979201 8.84841591 5.31872834 13.39957233 2.6875 17.6875 C0.375 18.9375 0.375 18.9375 -2.25 18.875 C-4.625 17.9375 -4.625 17.9375 -6.625 14.9375 C-7.26979201 10.02658409 -7.56872834 5.47542767 -4.9375 1.1875 C-2.625 -0.0625 -2.625 -0.0625 0 0 Z " fill="#0A0B0E" transform="translate(242.625,123.0625)"/>
<path d="M0 0 C5.28 0 10.56 0 16 0 C11 5 11 5 8.83203125 7.1328125 C8.16558594 7.79023437 7.49914062 8.44765625 6.8125 9.125 C6.13832031 9.78757812 5.46414063 10.45015625 4.76953125 11.1328125 C1.90719912 14.14539399 1.90719912 14.14539399 0.8046875 18.04296875 C0.82789063 18.75066406 0.85109375 19.45835938 0.875 20.1875 C0.91625 21.445625 0.9575 22.70375 1 24 C0.34 24 -0.32 24 -1 24 C-1 20.7 -1 17.4 -1 14 C-4.05270463 13.84188612 -4.05270463 13.84188612 -7 15 C-7.66 15.66 -8.32 16.32 -9 17 C-9 12.95190509 -7.31225594 11.91641357 -4.60546875 9.109375 C-2.40529601 6.39606134 -2.40529601 6.39606134 0 0 Z " fill="#C7D5CE" transform="translate(336,97)"/>
<path d="M0 0 C0.61875 0.474375 1.2375 0.94875 1.875 1.4375 C3.90705546 3.02417441 3.90705546 3.02417441 6 4 C6.3125 6.25 6.3125 6.25 6 9 C3.5625 11.1875 3.5625 11.1875 1 13 C0.67 13.66 0.34 14.32 0 15 C-0.66 15 -1.32 15 -2 15 C-2 14.01 -2 13.02 -2 12 C-3.66289062 11.92652344 -3.66289062 11.92652344 -5.359375 11.8515625 C-6.82294065 11.77650785 -8.28648112 11.70096119 -9.75 11.625 C-10.47960937 11.5940625 -11.20921875 11.563125 -11.9609375 11.53125 C-15.73942656 11.3251506 -18.77946668 11.08487157 -22 9 C-22 8.01 -22 7.02 -22 6 C-15.4 6 -8.8 6 -2 6 C-2 4.35 -2 2.7 -2 1 C-1.34 0.67 -0.68 0.34 0 0 Z " fill="#BAC5BC" transform="translate(299,80)"/>
<path d="M0 0 C3.49844386 0.63389235 5.84086876 2.05177694 8.75 4.0625 C9.94882813 4.88427734 9.94882813 4.88427734 11.171875 5.72265625 C12.07679688 6.35494141 12.07679688 6.35494141 13 7 C12.70802734 6.06414062 12.70802734 6.06414062 12.41015625 5.109375 C12.27480469 4.41328125 12.13945312 3.7171875 12 3 C13.4375 1.25 13.4375 1.25 15 0 C21.11764706 6.58823529 21.11764706 6.58823529 21 12 C19.4375 14.4375 19.4375 14.4375 17 16 C13.53492113 16 11.49265619 15.28327731 8.5 13.5625 C5.58050488 10.5700175 0 4.43264369 0 0 Z " fill="#7BB474" transform="translate(129,106)"/>
<path d="M0 0 C9.57 0.33 19.14 0.66 29 1 C28.34 2.65 27.68 4.3 27 6 C23.88862065 6.91927117 21.23430866 7.00488143 18 6.9375 C14.65104548 7.00726989 12.13113593 7.86140511 9 9 C8.34 9 7.68 9 7 9 C7 10.65 7 12.3 7 14 C6.67 14 6.34 14 6 14 C5.773125 12.9275 5.54625 11.855 5.3125 10.75 C3.86973455 6.62781299 2.58089925 5.35585477 -1 3 C-0.34 2.67 0.32 2.34 1 2 C0.67 1.34 0.34 0.68 0 0 Z " fill="#ACB9AF" transform="translate(181,85)"/>
<path d="M0 0 C2.9375 -0.4375 2.9375 -0.4375 6 0 C7.875 1.4375 7.875 1.4375 9 4 C9.54349283 8.70164433 9.70232774 12.94201947 7 17 C3.875 17.75 3.875 17.75 1 18 C-1.87529605 14.7908965 -2.38813951 12.71404172 -2.3125 8.4375 C-2.30863281 7.48746094 -2.30476562 6.53742188 -2.30078125 5.55859375 C-2 3 -2 3 0 0 Z " fill="#18181D" transform="translate(205,124)"/>
<path d="M0 0 C27.06 0 54.12 0 82 0 C82 0.66 82 1.32 82 2 C78.44749454 3.18416849 75.69584445 3.08681849 71.94580078 3.03759766 C71.23162994 3.02959641 70.51745911 3.02159515 69.78164673 3.01335144 C67.41943753 2.98545994 65.05741234 2.94997839 62.6953125 2.9140625 C61.05248427 2.89228851 59.40965171 2.87083918 57.76681519 2.84970093 C54.32186374 2.80419425 50.87699053 2.7549772 47.43212891 2.703125 C43.02163377 2.63700109 38.61107744 2.57967409 34.2004261 2.52509499 C30.80657911 2.48218571 27.41280643 2.43477578 24.01903915 2.38599777 C22.39319561 2.36313431 20.76733248 2.34162095 19.14145279 2.32149124 C16.86520489 2.2925955 14.58912543 2.25768281 12.31298828 2.22119141 C10.37131271 2.19335068 10.37131271 2.19335068 8.39041138 2.16494751 C5.46909271 2.02282191 2.83808463 1.67540335 0 1 C0 0.67 0 0.34 0 0 Z " fill="#C3C6CB" transform="translate(265,274)"/>
<path d="M0 0 C2.98640249 0.23576862 4.53198051 0.51299165 6.63671875 2.703125 C8.29893341 5.50364712 8.43309131 7.32211459 8.4375 10.5625 C8.45683594 11.51253906 8.47617188 12.46257812 8.49609375 13.44140625 C8 16 8 16 6.28515625 17.90234375 C3.42061478 19.27830298 1.98483383 18.91203256 -1 18 C-1.02684312 15.18743719 -1.04676188 12.37512759 -1.0625 9.5625 C-1.07087891 8.76005859 -1.07925781 7.95761719 -1.08789062 7.13085938 C-1.0965143 5.08704779 -1.0522815 3.04316098 -1 1 C-0.67 0.67 -0.34 0.34 0 0 Z " fill="#38393D" transform="translate(225,123)"/>
<path d="M0 0 C2.97 0 5.94 0 9 0 C10.32 2.64 11.64 5.28 13 8 C18.94 8.33 24.88 8.66 31 9 C31 9.33 31 9.66 31 10 C30.20827393 10.02505615 29.41654785 10.0501123 28.60083008 10.07592773 C25.00456637 10.19215729 21.4085472 10.31476176 17.8125 10.4375 C15.94368164 10.49647461 15.94368164 10.49647461 14.03710938 10.55664062 C12.83505859 10.59853516 11.63300781 10.64042969 10.39453125 10.68359375 C9.28956299 10.72025146 8.18459473 10.75690918 7.04614258 10.79467773 C4.27407028 10.98152656 1.70457127 11.38162366 -1 12 C-0.34 11.67 0.32 11.34 1 11 C0.67 10.34 0.34 9.68 0 9 C-3.04581269 8.53045739 -3.04581269 8.53045739 -6.5625 8.375 C-7.76003906 8.30023438 -8.95757812 8.22546875 -10.19140625 8.1484375 C-11.11824219 8.09945312 -12.04507812 8.05046875 -13 8 C-13 7.67 -13 7.34 -13 7 C-8.71 7 -4.42 7 0 7 C1.45314664 2.39467611 1.45314664 2.39467611 0 0 Z " fill="#39643A" transform="translate(324,86)"/>
<path d="M0 0 C3.875 2.75 3.875 2.75 5 5 C5.66 5 6.32 5 7 5 C7 5.66 7 6.32 7 7 C8.32 7.33 9.64 7.66 11 8 C4.15832482 14.80694586 4.15832482 14.80694586 -0.375 15.5625 C-3 15 -3 15 -5 13 C-5.44949688 9.66088031 -5.71658313 7.14603365 -3.87890625 4.20703125 C-2.65335768 2.74539967 -1.33201246 1.36531278 0 0 Z " fill="#669F62" transform="translate(341,107)"/>
<path d="M0 0 C0.5775 0.37125 1.155 0.7425 1.75 1.125 C4 2.29166667 4 2.29166667 6.25 1.125 C6.8275 0.75375 7.405 0.3825 8 0 C8 1.33333333 8 2.66666667 8 4 C10.31 4.33 12.62 4.66 15 5 C14.34 7.31 13.68 9.62 13 12 C9.8125 12.3125 9.8125 12.3125 6 12 C5.278125 11.175 4.55625 10.35 3.8125 9.5 C-0.06604013 6.05240877 -2.8196332 6.41546618 -7.8125 6.6875 C-8.60076172 6.71005859 -9.38902344 6.73261719 -10.20117188 6.75585938 C-12.13493929 6.81445839 -14.06772167 6.90413173 -16 7 C-16 6.34 -16 5.68 -16 5 C-10.28728907 2.9337003 -5.96345767 2.9993291 0 4 C0 2.68 0 1.36 0 0 Z " fill="#9CABA2" transform="translate(360,80)"/>
<path d="M0 0 C3.3 0 6.6 0 10 0 C8.68 0.33 7.36 0.66 6 1 C5.95101562 1.75925781 5.90203125 2.51851563 5.8515625 3.30078125 C5.77679688 4.29464844 5.70203125 5.28851563 5.625 6.3125 C5.55539063 7.29863281 5.48578125 8.28476563 5.4140625 9.30078125 C5 12 5 12 3 15 C-0.125 15.6875 -0.125 15.6875 -3 16 C-3.33 15.01 -3.66 14.02 -4 13 C-5.093125 13.226875 -6.18625 13.45375 -7.3125 13.6875 C-11 14 -11 14 -12.875 12.75 C-14 11 -14 11 -15 8 C-10.25 8.875 -10.25 8.875 -8 10 C-3.85496339 10.24787017 -3.85496339 10.24787017 0 9 C0 6.03 0 3.06 0 0 Z " fill="#E0EAE6" transform="translate(171,104)"/>
<path d="M0 0 C0.99 0.33 1.98 0.66 3 1 C3.6875 3.0625 3.6875 3.0625 4 5 C4.69867188 4.91621094 5.39734375 4.83242187 6.1171875 4.74609375 C7.02726562 4.64425781 7.93734375 4.54242188 8.875 4.4375 C9.77992188 4.33308594 10.68484375 4.22867188 11.6171875 4.12109375 C14 4 14 4 16 5 C16.33 4.01 16.66 3.02 17 2 C17.99 2 18.98 2 20 2 C19.67 3.32 19.34 4.64 19 6 C18.22285645 5.99476318 17.44571289 5.98952637 16.64501953 5.98413086 C13.13835451 5.96339844 9.63170237 5.95035179 6.125 5.9375 C4.90167969 5.92912109 3.67835938 5.92074219 2.41796875 5.91210938 C1.25136719 5.90888672 0.08476562 5.90566406 -1.1171875 5.90234375 C-2.19597168 5.89710693 -3.27475586 5.89187012 -4.38623047 5.88647461 C-6.98232186 5.82116894 -6.98232186 5.82116894 -9 7 C-11.88370333 7.07194869 -14.74239664 7.09291708 -17.625 7.0625 C-18.42679688 7.05798828 -19.22859375 7.05347656 -20.0546875 7.04882812 C-22.03649006 7.03703168 -24.01825433 7.01909605 -26 7 C-26 6.34 -26 5.68 -26 5 C-24.68 5 -23.36 5 -22 5 C-22 4.34 -22 3.68 -22 3 C-18.7 3.33 -15.4 3.66 -12 4 C-11.67 3.01 -11.34 2.02 -11 1 C-7.79604584 1 -5.90600261 1.74335022 -3 3 C-2.01 2.01 -1.02 1.02 0 0 Z " fill="#C6C8CB" transform="translate(188,80)"/>
<path d="M0 0 C0.33 0.66 0.66 1.32 1 2 C0.09066991 3.27609323 -0.82782853 4.54565553 -1.75 5.8125 C-2.26046875 6.52019531 -2.7709375 7.22789063 -3.296875 7.95703125 C-5 10 -5 10 -7.203125 11.51171875 C-7.79609375 12.00285156 -8.3890625 12.49398437 -9 13 C-9 14.32 -9 15.64 -9 17 C-16.75 18.125 -16.75 18.125 -19 17 C-19 16.34 -19 15.68 -19 15 C-18.21625 14.79375 -17.4325 14.5875 -16.625 14.375 C-13.09902395 12.52806016 -13.1719773 10.67219553 -12 7 C-9.875 6.125 -9.875 6.125 -8 6 C-8 5.34 -8 4.68 -8 4 C-3.61538462 1 -3.61538462 1 -1 1 C-0.67 0.67 -0.34 0.34 0 0 Z " fill="#3E7C4D" transform="translate(334,97)"/>
<path d="M0 0 C0 0.66 0 1.32 0 2 C0.66 2 1.32 2 2 2 C2 2.66 2 3.32 2 4 C5.3 4.33 8.6 4.66 12 5 C11.01 6.485 11.01 6.485 10 8 C6.375 8.6875 6.375 8.6875 3 9 C3.33 9.99 3.66 10.98 4 12 C-0.72065967 10.45730076 -5.41664092 8.92205381 -10 7 C-4.65789474 0 -4.65789474 0 0 0 Z " fill="#2A6228" transform="translate(162,88)"/>
<path d="M0 0 C1.48831242 0.00667405 2.97660807 0.01863442 4.46484375 0.03515625 C5.22345703 0.03966797 5.98207031 0.04417969 6.76367188 0.04882812 C8.64326246 0.06064945 10.52281274 0.07858547 12.40234375 0.09765625 C7.08054706 6.08681651 -1.10228303 7.50104637 -8.76171875 8.01953125 C-9.67050781 8.05820313 -9.67050781 8.05820313 -10.59765625 8.09765625 C-9.61899287 6.95139303 -8.63971038 5.80565837 -7.66015625 4.66015625 C-7.11488281 4.02207031 -6.56960937 3.38398437 -6.0078125 2.7265625 C-3.73518051 0.10138926 -3.73518051 0.10138926 0 0 Z " fill="#285D2D" transform="translate(129.59765625,84.90234375)"/>
<path d="M0 0 C2 1 2 1 4 3 C4.36933645 5.75372909 4.18336678 8.20365661 4 11 C-0.8351138 12.6117046 -6.19651495 12.60116168 -11 11 C-11 10.34 -11 9.68 -11 9 C-10.34 9 -9.68 9 -9 9 C-9 8.01 -9 7.02 -9 6 C-6.69 6 -4.38 6 -2 6 C-1.34 4.02 -0.68 2.04 0 0 Z " fill="#74A068" transform="translate(182,89)"/>
<path d="M0 0 C5.28 0 10.56 0 16 0 C12 4 8 8 4 12 C3.67 11.01 3.34 10.02 3 9 C3.66 9 4.32 9 5 9 C5 8.34 5 7.68 5 7 C5.66 7 6.32 7 7 7 C7 6.34 7 5.68 7 5 C7.66 5 8.32 5 9 5 C9 4.01 9 3.02 9 2 C6.62766389 2.03780298 6.62766389 2.03780298 4 3 C2.64721885 4.98689731 1.31431695 6.98745218 0 9 C-1.65 9.66 -3.3 10.32 -5 11 C-3.35 7.37 -1.7 3.74 0 0 Z " fill="#C1D2C7" transform="translate(336,97)"/>
<path d="M0 0 C0 0.66 0 1.32 0 2 C0.99 2.33 1.98 2.66 3 3 C3.33333333 4.33333333 3.66666667 5.66666667 4 7 C4.99 7.33 5.98 7.66 7 8 C6 9 6 9 3.3125 9.1328125 C2.219375 9.13023438 1.12625 9.12765625 0 9.125 C-1.093125 9.12757812 -2.18625 9.13015625 -3.3125 9.1328125 C-6 9 -6 9 -7 8 C-7.04092937 5.66702567 -7.04241723 3.33294775 -7 1 C-4 0 -4 0 0 0 Z " fill="#C1C5C8" transform="translate(344,85)"/>
<path d="M0 0 C14.19461883 -1.0735426 14.19461883 -1.0735426 18.62109375 1.55859375 C20.29787834 3.29115496 21.71229906 4.96460174 23 7 C18.69976241 8.43341253 15.73739768 7.03041566 11.5 5.75 C10.72785156 5.53214844 9.95570313 5.31429687 9.16015625 5.08984375 C8.04447266 4.75919922 8.04447266 4.75919922 6.90625 4.421875 C6.22884766 4.22174805 5.55144531 4.02162109 4.85351562 3.81542969 C2.7326292 2.88237375 1.52991709 1.7190748 0 0 Z " fill="#1A4F22" transform="translate(345,86)"/>
<path d="M0 0 C1.2065625 0.0309375 1.2065625 0.0309375 2.4375 0.0625 C2.7675 1.0525 3.0975 2.0425 3.4375 3.0625 C2.1175 2.7325 0.7975 2.4025 -0.5625 2.0625 C-0.10875 3.155625 0.345 4.24875 0.8125 5.375 C1.06773437 5.98988281 1.32296875 6.60476562 1.5859375 7.23828125 C2.50556692 9.32783932 2.50556692 9.32783932 4.4375 12.0625 C3.89695946 16.60304054 3.89695946 16.60304054 2.4375 18.0625 C0.43791636 18.10330783 -1.56295254 18.10504356 -3.5625 18.0625 C-3.8925 17.0725 -4.2225 16.0825 -4.5625 15.0625 C-2.0875 15.5575 -2.0875 15.5575 0.4375 16.0625 C-0.01625 14.99 -0.47 13.9175 -0.9375 12.8125 C-1.20820313 12.17183594 -1.47890625 11.53117188 -1.7578125 10.87109375 C-2.56950819 8.96530246 -2.56950819 8.96530246 -3.8125 6.875 C-4.7742575 4.55075271 -4.44102184 3.37860304 -3.5625 1.0625 C-2.5625 0.0625 -2.5625 0.0625 0 0 Z " fill="#141418" transform="translate(275.5625,123.9375)"/>
<path d="M0 0 C1.32 0 2.64 0 4 0 C4.28875 0.61875 4.5775 1.2375 4.875 1.875 C5.93720042 4.13325765 5.93720042 4.13325765 8 6 C7.01 6.33 6.02 6.66 5 7 C5.33 8.65 5.66 10.3 6 12 C6.66 12 7.32 12 8 12 C9.7578125 17.95703125 9.7578125 17.95703125 10 20 C9.34 20.99 8.68 21.98 8 23 C7.34 22.67 6.68 22.34 6 22 C5.796875 20.1796875 5.796875 20.1796875 5.75 17.875 C5.35600922 13.10922695 3.74622628 10.88755203 0.375 7.60546875 C-1.2010832 5.76521252 -1.59005931 4.36228325 -2 2 C-1.34 2 -0.68 2 0 2 C0 1.34 0 0.68 0 0 Z " fill="#DDE8DB" transform="translate(143,99)"/>
<path d="M0 0 C0.99 0 1.98 0 3 0 C3.66 2.31 4.32 4.62 5 7 C8.96 7 12.92 7 17 7 C16.01 6.01 15.02 5.02 14 4 C14.33 3.34 14.66 2.68 15 2 C23.415 4.475 23.415 4.475 32 7 C32 7.33 32 7.66 32 8 C22.64087671 8.99263429 13.39605802 9.10731538 4 9 C2.68 6.03 1.36 3.06 0 0 Z " fill="#AFC2B4" transform="translate(333,86)"/>
<path d="M0 0 C0.226875 0.639375 0.45375 1.27875 0.6875 1.9375 C1.851458 4.19253976 1.851458 4.19253976 4.3125 5 C7.99433888 5 9.38617766 3.46446107 12 1 C10.86475876 4.84235498 9.8741331 8.1258669 7 11 C5.68 11 4.36 11 3 11 C3 10.34 3 9.68 3 9 C1.68 9.33 0.36 9.66 -1 10 C-1.82638376 7.10765685 -2 5.11257569 -2 2 C-1.34 1.34 -0.68 0.68 0 0 Z " fill="#5C8E54" transform="translate(345,103)"/>
<path d="M0 0 C0.1875 2.375 0.1875 2.375 0 5 C-0.99 5.66 -1.98 6.32 -3 7 C-2.01 7.66 -1.02 8.32 0 9 C0 9.99 0 10.98 0 12 C1.65 12 3.3 12 5 12 C5.33 11.34 5.66 10.68 6 10 C6.66 11.32 7.32 12.64 8 14 C6.43058802 15.56941198 4.85865006 15.2449847 2.6875 15.3125 C-0.53101269 15.26116806 -1.79725036 15.12068431 -4.625 13.4375 C-6 11 -6 11 -6 7.5 C-5.19916651 4.69708279 -3.69829221 0 0 0 Z " fill="#659672" transform="translate(304,89)"/>
<path d="M0 0 C2.86724686 0.57344937 3.8614515 0.8614515 6 3 C7.67293936 2.69972883 9.33985384 2.36442233 11 2 C11.99 2.33 12.98 2.66 14 3 C14 4 14 5 14 6 C9.49191663 7.04032693 5.77315877 6.85475658 1.2578125 6.2578125 C-1.85034863 5.90290137 -4.8747534 5.93350539 -8 6 C-8 4.35 -8 2.7 -8 1 C-7.05125 1.165 -6.1025 1.33 -5.125 1.5 C-2.19831099 2.0526635 -2.19831099 2.0526635 0 2 C0 1.34 0 0.68 0 0 Z " fill="#7D8085" transform="translate(309,157)"/>
<path d="M0 0 C-0.350625 1.11375 -0.70125 2.2275 -1.0625 3.375 C-2.37239331 6.80264476 -2.37239331 6.80264476 -1 9 C-3.97 8.67 -6.94 8.34 -10 8 C-9.34 7.67 -8.68 7.34 -8 7 C-8.825 6.21625 -9.65 5.4325 -10.5 4.625 C-13 2 -13 2 -13 0 C-11.58456585 -0.19658808 -10.16755969 -0.38187546 -8.75 -0.5625 C-7.96109375 -0.66691406 -7.1721875 -0.77132812 -6.359375 -0.87890625 C-3.99467126 -1.00027349 -2.2488963 -0.69633257 0 0 Z " fill="#567E48" transform="translate(183,87)"/>
<path d="M0 0 C1.670625 0.2475 1.670625 0.2475 3.375 0.5 C6.94351384 1.26487734 6.94351384 1.26487734 10 0 C10 1.65 10 3.3 10 5 C5.25 6.125 5.25 6.125 3 5 C1.52331663 4.9047301 0.04224543 4.87014041 -1.4375 4.875 C-2.21996094 4.87242187 -3.00242187 4.86984375 -3.80859375 4.8671875 C-6.17895347 4.91617452 -6.17895347 4.91617452 -9 6 C-9.99 5.34 -10.98 4.68 -12 4 C-11.34 4 -10.68 4 -10 4 C-9.67 3.01 -9.34 2.02 -9 1 C-7.700625 1.020625 -6.40125 1.04125 -5.0625 1.0625 C-3.70834367 1.08399454 -2.35243917 1.07148199 -1 1 C-0.67 0.67 -0.34 0.34 0 0 Z " fill="#74777C" transform="translate(299,305)"/>
<path d="M0 0 C2.93427465 0.23165326 4.56526011 0.62522423 6.8125 2.5625 C8.55632063 6.1419213 8.19791008 9.04179842 8 13 C7.67 13 7.34 13 7 13 C6.80664062 12.36191406 6.61328125 11.72382813 6.4140625 11.06640625 C6.15367187 10.24011719 5.89328125 9.41382813 5.625 8.5625 C5.24214844 7.32693359 5.24214844 7.32693359 4.8515625 6.06640625 C4.19117773 3.82201984 4.19117773 3.82201984 2 3 C2.01160156 3.84304687 2.02320313 4.68609375 2.03515625 5.5546875 C2.04869141 7.19824219 2.04869141 7.19824219 2.0625 8.875 C2.07410156 9.96554688 2.08570313 11.05609375 2.09765625 12.1796875 C2 15 2 15 1 17 C0.34 17 -0.32 17 -1 17 C-1.02684679 14.35409986 -1.04676357 11.70846904 -1.0625 9.0625 C-1.07087891 8.30775391 -1.07925781 7.55300781 -1.08789062 6.77539062 C-1.09652441 4.85005687 -1.05224333 2.92464419 -1 1 C-0.67 0.67 -0.34 0.34 0 0 Z " fill="#08090C" transform="translate(225,123)"/>
<path d="M0 0 C2.31 0 4.62 0 7 0 C7 0.99 7 1.98 7 3 C6.34 3 5.68 3 5 3 C5 8.28 5 13.56 5 19 C4.01 19 3.02 19 2 19 C2 13.72 2 8.44 2 3 C1.01 3 0.02 3 -1 3 C-0.67 2.01 -0.34 1.02 0 0 Z " fill="#0D0D11" transform="translate(193,123)"/>
<path d="M0 0 C1.32 0 2.64 0 4 0 C5.58493084 3.16986168 5.2940042 6.54032261 5 10 C4 12.5 4 12.5 3 14 C2.01 13.67 1.02 13.34 0 13 C-1.18306728 10.63386544 -1.13354608 9.13219264 -1.125 6.5 C-1.12757813 5.7059375 -1.13015625 4.911875 -1.1328125 4.09375 C-1 2 -1 2 0 0 Z " fill="#C8C9CD" transform="translate(240,126)"/>
<path d="M0 0 C2.31 0 4.62 0 7 0 C7.33 0.99 7.66 1.98 8 3 C7.01 3 6.02 3 5 3 C5 8.28 5 13.56 5 19 C4.01 19 3.02 19 2 19 C2 13.72 2 8.44 2 3 C1.34 3 0.68 3 0 3 C0 2.01 0 1.02 0 0 Z " fill="#0C0C10" transform="translate(282,123)"/>
<path d="M0 0 C6.52279635 3.70212766 6.52279635 3.70212766 8 6 C7.71269945 8.33944736 7.38063221 10.6739143 7 13 C7.66 13.66 8.32 14.32 9 15 C4.74508335 14.52723148 2.77457155 12.07452523 0 9 C-0.33 8.34 -0.66 7.68 -1 7 C-0.34 6.67 0.32 6.34 1 6 C0.34 4.35 -0.32 2.7 -1 1 C-0.67 0.67 -0.34 0.34 0 0 Z " fill="#709E69" transform="translate(135,99)"/>
<path d="M0 0 C6.6 0 13.2 0 20 0 C20 0.99 20 1.98 20 3 C16.69216735 4.10261088 14.04440731 4.23740779 10.5625 4.3125 C8.86287109 4.36857422 8.86287109 4.36857422 7.12890625 4.42578125 C4 4 4 4 0 0 Z " fill="#315E38" transform="translate(187,86)"/>
<path d="M0 0 C0.9075 0.845625 1.815 1.69125 2.75 2.5625 C4.34817687 3.97125235 4.34817687 3.97125235 6 5 C8.15274948 4.69159401 8.15274948 4.69159401 10 4 C11.75 5.3125 11.75 5.3125 13 7 C13 7.66 13 8.32 13 9 C13.66 9.33 14.32 9.66 15 10 C16.36244796 11.64295195 17.69864875 13.30824337 19 15 C12.30662952 14.66533148 7.90629311 10.97632427 3.37890625 6.33984375 C0 2.44405099 0 2.44405099 0 0 Z " fill="#468452" transform="translate(151,98)"/>
<path d="M0 0 C4.41889613 1.35021826 6.34345343 3.26115668 9 7 C7.73392393 7.53229326 6.46189588 8.05044544 5.1875 8.5625 C4.47980469 8.85253906 3.77210938 9.14257812 3.04296875 9.44140625 C1 10 1 10 -2 9 C-1.34 9 -0.68 9 0 9 C-0.33 8.34 -0.66 7.68 -1 7 C-4.04581269 6.53045739 -4.04581269 6.53045739 -7.5625 6.375 C-8.76003906 6.30023438 -9.95757812 6.22546875 -11.19140625 6.1484375 C-12.11824219 6.09945312 -13.04507812 6.05046875 -14 6 C-14 5.67 -14 5.34 -14 5 C-9.71 5 -5.42 5 -1 5 C-0.67 3.35 -0.34 1.7 0 0 Z " fill="#1A551F" transform="translate(325,88)"/>
<path d="M0 0 C0.12375 0.639375 0.2475 1.27875 0.375 1.9375 C0.58125 2.618125 0.7875 3.29875 1 4 C1.66 4.33 2.32 4.66 3 5 C-2.0771923 5.84619872 -6.84968375 6.34335442 -12 6 C-13.734375 4.484375 -13.734375 4.484375 -15 3 C-13.25183142 2.49363393 -11.50137737 1.99515381 -9.75 1.5 C-8.77546875 1.2215625 -7.8009375 0.943125 -6.796875 0.65625 C-4 0 -4 0 0 0 Z " fill="#CBD2CF" transform="translate(145,89)"/>
<path d="M0 0 C1.32 1.32 2.64 2.64 4 4 C4.66 3.34 5.32 2.68 6 2 C8.125 2.375 8.125 2.375 10 3 C9.67 3.99 9.34 4.98 9 6 C8.01 6.33 7.02 6.66 6 7 C5.67 8.65 5.34 10.3 5 12 C4.67 11.34 4.34 10.68 4 10 C3.01 10 2.02 10 1 10 C0.67 8.68 0.34 7.36 0 6 C-0.99 6.99 -1.98 7.98 -3 9 C-2.44271087 5.65626525 -1.64826111 2.96687001 0 0 Z M3 12 C3.99 12.495 3.99 12.495 5 13 C5 13.66 5 14.32 5 15 C4.34 15 3.68 15 3 15 C3 14.01 3 13.02 3 12 Z " fill="#E4E5EA" transform="translate(186,152)"/>
<path d="M0 0 C1.98 0.495 1.98 0.495 4 1 C4.0810206 3.10353495 4.13919907 5.20795952 4.1875 7.3125 C4.22230469 8.48425781 4.25710937 9.65601563 4.29296875 10.86328125 C4 14 4 14 2.48828125 15.91796875 C1.75158203 16.45357422 1.75158203 16.45357422 1 17 C0.34 16.67 -0.32 16.34 -1 16 C-0.67 10.72 -0.34 5.44 0 0 Z " fill="#DDDEE2" transform="translate(199,126)"/>
<path d="M0 0 C0.99 0 1.98 0 3 0 C3 4.29 3 8.58 3 13 C1.68 13 0.36 13 -1 13 C-2.30765478 9.07703567 -2.1971417 6.13997567 -2 2 C-1.34 1.34 -0.68 0.68 0 0 Z " fill="#D4D4D8" transform="translate(208,126)"/>
<path d="M0 0 C0.99 0 1.98 0 3 0 C3.33 5.28 3.66 10.56 4 16 C4.99 16 5.98 16 7 16 C7 16.66 7 17.32 7 18 C4.625 18.125 4.625 18.125 2 18 C0 16 0 16 -0.1953125 12.3046875 C-0.182009 10.82799892 -0.15814835 9.35137642 -0.125 7.875 C-0.11146484 6.74384766 -0.11146484 6.74384766 -0.09765625 5.58984375 C-0.0740687 3.72642746 -0.03819719 1.86317407 0 0 Z " fill="#0E0E12" transform="translate(257,124)"/>
<path d="M0 0 C1.0625 1.8125 1.0625 1.8125 2 4 C1.67 4.99 1.34 5.98 1 7 C-0.32 7 -1.64 7 -3 7 C-3.66 8.32 -4.32 9.64 -5 11 C-5.66 11 -6.32 11 -7 11 C-7.33 10.01 -7.66 9.02 -8 8 C-8.66 8 -9.32 8 -10 8 C-10 8.66 -10 9.32 -10 10 C-10.66 10 -11.32 10 -12 10 C-12 8.35 -12 6.7 -12 5 C-10.948125 4.9175 -9.89625 4.835 -8.8125 4.75 C-4.72952791 3.94679238 -2.9877273 2.80665291 0 0 Z " fill="#CED1D6" transform="translate(305,153)"/>
<path d="M0 0 C0.9765625 6.0546875 0.9765625 6.0546875 1 8 C-1 10 -1 10 -3.625 10.125 C-4.40875 10.08375 -5.1925 10.0425 -6 10 C-6 7.03 -6 4.06 -6 1 C-4 0 -4 0 0 0 Z " fill="#6F9F6D" transform="translate(116,100)"/>
<path d="M0 0 C0.66 0 1.32 0 2 0 C2.91448763 1.42253631 3.82776621 2.84586694 4.734375 4.2734375 C8.08256867 8.84103504 12.56277258 12.35235533 18 14 C18 14.99 18 15.98 18 17 C13.06328061 16.54077029 10.51386625 15.51386625 7 12 C4.16077462 8.18909797 1.50924257 4.52772771 0 0 Z " fill="#5D926B" transform="translate(149,98)"/>
<path d="M0 0 C4.92127034 -0.16682272 8.50343896 -0.24828052 13 2 C12.01 3.98 11.02 5.96 10 8 C7.18127263 7.61121002 6.22804402 7.29189635 4.4375 5 C3.963125 4.34 3.48875 3.68 3 3 C2.01 2.67 1.02 2.34 0 2 C0 1.34 0 0.68 0 0 Z " fill="#568C56" transform="translate(149,96)"/>
<path d="M0 0 C2.6875 2.5 2.6875 2.5 5 5 C4.67 5.66 4.34 6.32 4 7 C-0.29 6.67 -4.58 6.34 -9 6 C-8.01 5.67 -7.02 5.34 -6 5 C-6 4.34 -6 3.68 -6 3 C-6.66 3 -7.32 3 -8 3 C-8 2.34 -8 1.68 -8 1 C-5.23735711 0.40267181 -2.83967231 0 0 0 Z " fill="#41763B" transform="translate(170,87)"/>
<path d="M0 0 C2.28062828 3.42094242 2.21925007 4.68187222 2.125 8.6875 C2.10695312 9.68136719 2.08890625 10.67523438 2.0703125 11.69921875 C2.03550781 12.83810547 2.03550781 12.83810547 2 14 C1.34 14 0.68 14 0 14 C-0.33 10.04 -0.66 6.08 -1 2 C-2.32 2 -3.64 2 -5 2 C-5 2.66 -5 3.32 -5 4 C-6.32 4.33 -7.64 4.66 -9 5 C-7.03860451 -0.46388745 -5.7890331 -1.73670993 0 0 Z " fill="#232429" transform="translate(245,124)"/>
<path d="M0 0 C0.66 0 1.32 0 2 0 C2 0.66 2 1.32 2 2 C3.32 2.33 4.64 2.66 6 3 C-0.81518458 9.78058974 -0.81518458 9.78058974 -5.375 10.625 C-8 10 -8 10 -10 7 C-5.545 6.505 -5.545 6.505 -1 6 C0.15811388 3.05270463 0.15811388 3.05270463 0 0 Z " fill="#6F9A67" transform="translate(346,112)"/>
<path d="M0 0 C0.99 0 1.98 0 3 0 C2.88570603 1.77155654 2.75816963 3.54226229 2.625 5.3125 C2.55539063 6.29863281 2.48578125 7.28476563 2.4140625 8.30078125 C2 11 2 11 0 14 C-3.125 14.6875 -3.125 14.6875 -6 15 C-5.67 13.68 -5.34 12.36 -5 11 C-4.01 11 -3.02 11 -2 11 C-1.34 7.37 -0.68 3.74 0 0 Z " fill="#E6E9EC" transform="translate(174,105)"/>
<path d="M0 0 C0.33 0.66 0.66 1.32 1 2 C2.98 2 4.96 2 7 2 C6.67 1.34 6.34 0.68 6 0 C9.69900008 0.88776002 13.34550461 1.94581864 17 3 C17 3.33 17 3.66 17 4 C16.40461426 4.02505615 15.80922852 4.0501123 15.19580078 4.07592773 C12.50530864 4.19177494 9.8151766 4.31455196 7.125 4.4375 C6.18785156 4.47681641 5.25070312 4.51613281 4.28515625 4.55664062 C2.94130859 4.61948242 2.94130859 4.61948242 1.5703125 4.68359375 C0.74289551 4.72025146 -0.08452148 4.75690918 -0.93701172 4.79467773 C-3.06179429 4.88238327 -3.06179429 4.88238327 -5 6 C-5.66 5.34 -6.32 4.68 -7 4 C-6.34 4 -5.68 4 -5 4 C-5 3.34 -5 2.68 -5 2 C-3.35 1.34 -1.7 0.68 0 0 Z " fill="#BBC2C1" transform="translate(279,82)"/>
<path d="M0 0 C-0.15597656 0.90363281 -0.31195313 1.80726562 -0.47265625 2.73828125 C-0.66730469 3.91777344 -0.86195313 5.09726563 -1.0625 6.3125 C-1.25972656 7.48425781 -1.45695312 8.65601562 -1.66015625 9.86328125 C-2.22305698 13.02511876 -2.22305698 13.02511876 -1 16 C-1.99 15.67 -2.98 15.34 -4 15 C-3.67 10.71 -3.34 6.42 -3 2 C-3.66 2 -4.32 2 -5 2 C-5 3.32 -5 4.64 -5 6 C-6.32 5.34 -7.64 4.68 -9 4 C-9 3.01 -9 2.02 -9 1 C-5.846632 0.29925156 -3.27275026 0 0 0 Z " fill="#99B2A0" transform="translate(373,94)"/>
<path d="M0 0 C2.79919871 1.18427638 4.78050261 2.65953285 7 4.6875 C9.65744871 7.22258099 9.65744871 7.22258099 12.1875 7 C14.17232786 5.90492256 15.51625536 4.70630634 17 3 C17.33 3.99 17.66 4.98 18 6 C16.375 8.0625 16.375 8.0625 14 10 C9.13133878 10 6.43533866 8.34249167 3 5 C1.1875 2.25 1.1875 2.25 0 0 Z " fill="#8DB18A" transform="translate(132,112)"/>
<path d="M0 0 C3.63 0 7.26 0 11 0 C11.33 0.99 11.66 1.98 12 3 C11.34 3 10.68 3 10 3 C10 3.66 10 4.32 10 5 C7.625 6.6875 7.625 6.6875 5 8 C4.34 7.67 3.68 7.34 3 7 C3.99 6.34 4.98 5.68 6 5 C5.195625 4.731875 4.39125 4.46375 3.5625 4.1875 C2.716875 3.795625 1.87125 3.40375 1 3 C0.67 2.01 0.34 1.02 0 0 Z " fill="#2B662A" transform="translate(313,94)"/>
<path d="M0 0 C4.62 0 9.24 0 14 0 C12 3 12 3 9 4 C7.43881572 4.06740865 5.8749748 4.08514456 4.3125 4.0625 C3.10013672 4.04896484 3.10013672 4.04896484 1.86328125 4.03515625 C0.94095703 4.01775391 0.94095703 4.01775391 0 4 C0 2.68 0 1.36 0 0 Z " fill="#2C5433" transform="translate(284,86)"/>
<path d="M0 0 C2 3.75 2 3.75 2 6 C5.42232972 7.14077657 8.08673217 7.09815117 11.6875 7.0625 C12.86699219 7.05347656 14.04648437 7.04445313 15.26171875 7.03515625 C16.16535156 7.02355469 17.06898438 7.01195313 18 7 C18 7.99 18 8.98 18 10 C12.39 9.67 6.78 9.34 1 9 C-1.08954032 4.82091936 -1.16552619 4.19589427 0 0 Z " fill="#C1D7CE" transform="translate(297,96)"/>
<path d="M0 0 C2.31 0 4.62 0 7 0 C7 1.32 7 2.64 7 4 C12.445 3.505 12.445 3.505 18 3 C18 3.66 18 4.32 18 5 C12.0853971 6.59854133 6.84715547 5.25890714 1 4 C0.67 2.68 0.34 1.36 0 0 Z " fill="#9AAC99" transform="translate(277,86)"/>
<path d="M0 0 C0.5775 0.37125 1.155 0.7425 1.75 1.125 C4 2.29166667 4 2.29166667 6.25 1.125 C6.8275 0.75375 7.405 0.3825 8 0 C8 3 8 3 7 6 C5.33388095 6.042721 3.66617115 6.04063832 2 6 C1.67 5.67 1.34 5.34 1 5 C-1.35313555 4.92728259 -3.70833668 4.91629132 -6.0625 4.9375 C-7.35285156 4.94652344 -8.64320313 4.95554687 -9.97265625 4.96484375 C-10.97167969 4.97644531 -11.97070312 4.98804687 -13 5 C-9.8250906 3.0921416 -7.89414789 2.8390959 -4.25 3.375 C-3.45078125 3.48585938 -2.6515625 3.59671875 -1.828125 3.7109375 C-1.22484375 3.80632812 -0.6215625 3.90171875 0 4 C0 2.68 0 1.36 0 0 Z " fill="#BABEC0" transform="translate(360,80)"/>
<path d="M0 0 C0.66 0 1.32 0 2 0 C2.66 1.32 3.32 2.64 4 4 C3 5.5625 3 5.5625 1 7 C-1.76614782 6.96726452 -4.26030547 6.49404328 -7 6 C-7 4.68 -7 3.36 -7 2 C-6.030625 1.855625 -5.06125 1.71125 -4.0625 1.5625 C-1.13513227 1.32437659 -1.13513227 1.32437659 0 0 Z " fill="#818286" transform="translate(179,157)"/>
<path d="M0 0 C0.33 0.66 0.66 1.32 1 2 C-0.98 2 -2.96 2 -5 2 C-4.67 4.97 -4.34 7.94 -4 11 C-5.65 11.66 -7.3 12.32 -9 13 C-9 4.8 -9 4.8 -6 1 C-2.8125 0.1875 -2.8125 0.1875 0 0 Z " fill="#72A686" transform="translate(176,102)"/>
<path d="M0 0 C0.66 0 1.32 0 2 0 C0.25 6.75 0.25 6.75 -2 9 C-3.32 9 -4.64 9 -6 9 C-6.38218767 7.34385343 -6.71395102 5.67542976 -7 4 C-6 3 -6 3 -3.4375 2.9375 C-2.2309375 2.9684375 -2.2309375 2.9684375 -1 3 C-0.67 2.01 -0.34 1.02 0 0 Z " fill="#C1C4C9" transform="translate(261,378)"/>
<path d="M0 0 C0.99 0 1.98 0 3 0 C3 4.62 3 9.24 3 14 C2.01 14 1.02 14 0 14 C0 9.38 0 4.76 0 0 Z " fill="#030408" transform="translate(266,128)"/>
<path d="M0 0 C0.33 0 0.66 0 1 0 C2.34781403 4.88582585 3.11572641 8.90803784 3 14 C3.43941523 16.26566343 3.43941523 16.26566343 4 18 C5.32 18.33 6.64 18.66 8 19 C7.01 21.475 7.01 21.475 6 24 C0.8468655 16.27029826 -0.6303774 9.2105143 0 0 Z " fill="#EAF1F3" transform="translate(103,67)"/>
<path d="M0 0 C1.65 0.33 3.3 0.66 5 1 C5.33 2.65 5.66 4.3 6 6 C5.34 6 4.68 6 4 6 C4 6.99 4 7.98 4 9 C3.01 8.67 2.02 8.34 1 8 C1 7.01 1 6.02 1 5 C0.34 5 -0.32 5 -1 5 C-0.67 3.35 -0.34 1.7 0 0 Z " fill="#CDD0D5" transform="translate(256,270)"/>
<path d="M0 0 C0.33 0.66 0.66 1.32 1 2 C2.32 1.67 3.64 1.34 5 1 C4.125 6.75 4.125 6.75 3 9 C2.01 9 1.02 9 0 9 C-0.33 9.66 -0.66 10.32 -1 11 C-1.125 3.375 -1.125 3.375 0 0 Z " fill="#559371" transform="translate(315,103)"/>
<path d="M0 0 C5.94 0 11.88 0 18 0 C18 0.66 18 1.32 18 2 C17.34 2.66 16.68 3.32 16 4 C15.67 4.99 15.34 5.98 15 7 C15 6.34 15 5.68 15 5 C14.34 5 13.68 5 13 5 C13 5.66 13 6.32 13 7 C11.68 6.67 10.36 6.34 9 6 C10.32 4.68 11.64 3.36 13 2 C8.71 1.67 4.42 1.34 0 1 C0 0.67 0 0.34 0 0 Z " fill="#69866C" transform="translate(337,96)"/>
<path d="M0 0 C2.625 -0.1875 2.625 -0.1875 5 0 C5 0.99 5 1.98 5 3 C4.34 3 3.68 3 3 3 C3 3.66 3 4.32 3 5 C2.34 5 1.68 5 1 5 C1 5.66 1 6.32 1 7 C0.34 7 -0.32 7 -1 7 C-1.33 7.66 -1.66 8.32 -2 9 C-2.66 8.67 -3.32 8.34 -4 8 C-2.87548273 5.0280615 -1.77706209 2.66559313 0 0 Z " fill="#D0D0DA" transform="translate(340,99)"/>
<path d="M0 0 C1.65 0.33 3.3 0.66 5 1 C5.33 2.32 5.66 3.64 6 5 C5.01 5 4.02 5 3 5 C2.34 6.98 1.68 8.96 1 11 C0.34 11 -0.32 11 -1 11 C-1.0270043 9.54176788 -1.04639787 8.08339325 -1.0625 6.625 C-1.07410156 5.81289062 -1.08570312 5.00078125 -1.09765625 4.1640625 C-1 2 -1 2 0 0 Z " fill="#E8E9ED" transform="translate(118,97)"/>
<path d="M0 0 C4.95 0 9.9 0 15 0 C15 0.66 15 1.32 15 2 C14.04287109 2.09087891 14.04287109 2.09087891 13.06640625 2.18359375 C11.82697266 2.30927734 11.82697266 2.30927734 10.5625 2.4375 C9.32693359 2.55931641 9.32693359 2.55931641 8.06640625 2.68359375 C6.01337975 2.78930815 6.01337975 2.78930815 5 4 C3.33382885 4.04063832 1.66611905 4.042721 0 4 C0 2.68 0 1.36 0 0 Z " fill="#517745" transform="translate(309,87)"/>
<path d="M0 0 C5.28 0 10.56 0 16 0 C13.09907498 2.90092502 12.03482675 3.55461795 8.3125 4.6875 C7.50425781 4.93886719 6.69601563 5.19023438 5.86328125 5.44921875 C4.94095703 5.72185547 4.94095703 5.72185547 4 6 C4 5.34 4 4.68 4 4 C4.99 3.34 5.98 2.68 7 2 C4.69 1.67 2.38 1.34 0 1 C0 0.67 0 0.34 0 0 Z " fill="#46684B" transform="translate(126,85)"/>
<path d="M0 0 C4.29 0.99 8.58 1.98 13 3 C13 3.33 13 3.66 13 4 C7.39 4 1.78 4 -4 4 C-4 3.34 -4 2.68 -4 2 C-2.68 2 -1.36 2 0 2 C0 1.34 0 0.68 0 0 Z " fill="#B9C4B8" transform="translate(166,83)"/>
<path d="M0 0 C2.475 0.99 2.475 0.99 5 2 C5 3.98 5 5.96 5 8 C2.03 7.505 2.03 7.505 -1 7 C-1.04254356 5.00045254 -1.04080783 2.99958364 -1 1 C-0.67 0.67 -0.34 0.34 0 0 Z " fill="#8F9297" transform="translate(255,323)"/>
<path d="M0 0 C1.890625 0.24609375 1.890625 0.24609375 4 1 C5.046875 2.84765625 5.046875 2.84765625 5.75 5.0625 C5.99234375 5.79597656 6.2346875 6.52945313 6.484375 7.28515625 C6.65453125 7.85105469 6.8246875 8.41695312 7 9 C6.34 9 5.68 9 5 9 C4.67 11.97 4.34 14.94 4 18 C3.67 18 3.34 18 3 18 C3 13.71 3 9.42 3 5 C2.34 5 1.68 5 1 5 C0.67 3.35 0.34 1.7 0 0 Z " fill="#87888C" transform="translate(266,123)"/>
<path d="M0 0 C0.66 0.33 1.32 0.66 2 1 C-0.9926612 7.97827911 -3.8852519 12.44391318 -10 17 C-10 15.68 -10 14.36 -10 13 C-8.55047525 11.8140252 -7.09560279 10.63328742 -5.6015625 9.50390625 C-2.81087757 6.88338503 -1.46905697 3.48252916 0 0 Z " fill="#4F7E5C" transform="translate(335,96)"/>
<path d="M0 0 C4.455 0.99 4.455 0.99 9 2 C8 5 8 5 6 6 C5.34444881 8.52733235 5.34444881 8.52733235 5 11 C3.13448574 7.41247258 1.57464072 3.72187807 0 0 Z " fill="#D5E7DD" transform="translate(112,93)"/>
<path d="M0 0 C2.4375 1 2.4375 1 4 2 C1.69 2.33 -0.62 2.66 -3 3 C-2.67 3.99 -2.34 4.98 -2 6 C-4.97 5.01 -7.94 4.02 -11 3 C-7.4820167 -0.37726396 -4.75972022 -0.42497502 0 0 Z " fill="#3A7237" transform="translate(168,94)"/>
<path d="M0 0 C0.91007812 0.00902344 1.82015625 0.01804688 2.7578125 0.02734375 C3.45648438 0.03894531 4.15515625 0.05054688 4.875 0.0625 C4.875 0.7225 4.875 1.3825 4.875 2.0625 C3.9675 2.35125 3.06 2.64 2.125 2.9375 C-1.01876644 3.93365623 -1.01876644 3.93365623 -3.375 5.25 C-3.9525 5.518125 -4.53 5.78625 -5.125 6.0625 C-5.785 5.7325 -6.445 5.4025 -7.125 5.0625 C-7.125 3.7425 -7.125 2.4225 -7.125 1.0625 C-4.60024538 -0.19987731 -2.81299534 -0.03606404 0 0 Z " fill="#E4F0F1" transform="translate(108.125,47.9375)"/>
<path d="M0 0 C0.33 0.66 0.66 1.32 1 2 C0.14453125 3.9453125 0.14453125 3.9453125 -1.1875 6.125 C-1.61417969 6.84945312 -2.04085938 7.57390625 -2.48046875 8.3203125 C-2.98191406 8.87460938 -3.48335938 9.42890625 -4 10 C-5.32 10 -6.64 10 -8 10 C-8.33 9.01 -8.66 8.02 -9 7 C-8.43410156 6.57847656 -7.86820312 6.15695313 -7.28515625 5.72265625 C-6.55167969 5.17480469 -5.81820313 4.62695312 -5.0625 4.0625 C-4.33160156 3.51722656 -3.60070312 2.97195312 -2.84765625 2.41015625 C-1.0865547 1.13092062 -1.0865547 1.13092062 0 0 Z " fill="#659155" transform="translate(356,104)"/>
<path d="M0 0 C4.875 4.625 4.875 4.625 6 8 C3.69 7.67 1.38 7.34 -1 7 C-1.625 5.1875 -1.625 5.1875 -2 3 C-1.34 2.01 -0.68 1.02 0 0 Z " fill="#86AE74" transform="translate(143,106)"/>
<path d="M0 0 C1.32 0.99 2.64 1.98 4 3 C3.67 3.99 3.34 4.98 3 6 C1.15234375 6.73046875 1.15234375 6.73046875 -1.0625 7.1875 C-1.79597656 7.34605469 -2.52945312 7.50460938 -3.28515625 7.66796875 C-4.13400391 7.83232422 -4.13400391 7.83232422 -5 8 C-3.8141763 4.62496331 -2.72426311 2.35277269 0 0 Z " fill="#6E9A58" transform="translate(341,107)"/>
<path d="M0 0 C3.15330554 0.60694155 5.18888867 1.6416665 7.75 3.5625 C8.67039063 4.24505859 8.67039063 4.24505859 9.609375 4.94140625 C10.29773438 5.46541016 10.29773438 5.46541016 11 6 C10.01 6.99 9.02 7.98 8 9 C3.48864333 6.80528594 1.93726652 4.58826282 0 0 Z " fill="#7EA66B" transform="translate(129,106)"/>
<path d="M0 0 C0.33 0.99 0.66 1.98 1 3 C0.34 3 -0.32 3 -1 3 C-1.33 3.99 -1.66 4.98 -2 6 C-1.34 6.66 -0.68 7.32 0 8 C-3.26189156 7.4376049 -4.91134848 6.5859495 -7 4 C-7.33 3.01 -7.66 2.02 -8 1 C-5.36 0.67 -2.72 0.34 0 0 Z " fill="#588A4E" transform="translate(172,95)"/>
<path d="M0 0 C0.86625 0.5259375 0.86625 0.5259375 1.75 1.0625 C4.41846792 2.17436163 5.30380114 1.78276741 8 1 C8.99 1.33 9.98 1.66 11 2 C11 3 11 4 11 5 C6.98195309 5.84098656 3.98196457 6.05404945 0 5 C-0.5625 3.0625 -0.5625 3.0625 -1 1 C-0.67 0.67 -0.34 0.34 0 0 Z " fill="#616469" transform="translate(312,158)"/>
<path d="M0 0 C3 3 3 3 3.3984375 5.19140625 C3.39070312 5.97386719 3.38296875 6.75632813 3.375 7.5625 C3.38273438 8.34753906 3.39046875 9.13257813 3.3984375 9.94140625 C3.26695312 10.62074219 3.13546875 11.30007812 3 12 C2.01 12.66 1.02 13.32 0 14 C0 9.38 0 4.76 0 0 Z " fill="#D9DADE" transform="translate(228,126)"/>
<path d="M0 0 C4.21548466 1.56129062 6.22687017 4.58691713 9 8 C9.99 8.66 10.98 9.32 12 10 C11.67 10.66 11.34 11.32 11 12 C4.3827534 9.54916793 4.3827534 9.54916793 2.5625 6.9375 C2 5 2 5 2 3 C1.34 2.67 0.68 2.34 0 2 C0 1.34 0 0.68 0 0 Z " fill="#E0EEE2" transform="translate(129,111)"/>
<path d="M0 0 C0.66 0 1.32 0 2 0 C0.52307692 5.66153846 0.52307692 5.66153846 -2.125 7.375 C-3.053125 7.684375 -3.053125 7.684375 -4 8 C-4 9.65 -4 11.3 -4 13 C-5.98 13.99 -5.98 13.99 -8 15 C-6.5482621 9.33822218 -3.68441695 4.50540116 0 0 Z " fill="#C0CEC4" transform="translate(362,97)"/>
<path d="M0 0 C3.3 0 6.6 0 10 0 C10 0.33 10 0.66 10 1 C7.69 1 5.38 1 3 1 C3.04125 2.258125 3.0825 3.51625 3.125 4.8125 C3.2390374 8.29064073 3.05925681 8.91111478 1 12 C0.01 12 -0.98 12 -2 12 C-2 11.34 -2 10.68 -2 10 C-1.34 9.67 -0.68 9.34 0 9 C0 6.03 0 3.06 0 0 Z " fill="#D3EADF" transform="translate(171,104)"/>
<path d="M0 0 C1.32 0 2.64 0 4 0 C4.28875 0.61875 4.5775 1.2375 4.875 1.875 C5.93720042 4.13325765 5.93720042 4.13325765 8 6 C7.01 6.33 6.02 6.66 5 7 C4.67 7.66 4.34 8.32 4 9 C3.7525 8.21625 3.505 7.4325 3.25 6.625 C1.84610901 3.67682892 0.99324263 3.0975223 -2 2 C-1.34 2 -0.68 2 0 2 C0 1.34 0 0.68 0 0 Z " fill="#E2E3E9" transform="translate(143,99)"/>
<path d="M0 0 C1.98 0 3.96 0 6 0 C6 1.98 6 3.96 6 6 C4.35 5.67 2.7 5.34 1 5 C0.67 3.35 0.34 1.7 0 0 Z " fill="#818489" transform="translate(254,399)"/>
<path d="M0 0 C1.98 0 3.96 0 6 0 C5.67 1.65 5.34 3.3 5 5 C3.35 5.33 1.7 5.66 0 6 C0 4.02 0 2.04 0 0 Z " fill="#83868B" transform="translate(254,362)"/>
<path d="M0 0 C1.65 0 3.3 0 5 0 C5.33 0.66 5.66 1.32 6 2 C5.38511719 2.12117188 4.77023437 2.24234375 4.13671875 2.3671875 C3.32847656 2.53476563 2.52023437 2.70234375 1.6875 2.875 C0.88699219 3.03742188 0.08648437 3.19984375 -0.73828125 3.3671875 C-3.25301118 3.94478999 -3.25301118 3.94478999 -6 6 C-6.33 5.34 -6.66 4.68 -7 4 C-9.32156597 3.59270772 -11.6568787 3.25561323 -14 3 C-14 2.67 -14 2.34 -14 2 C-9.38 1.67 -4.76 1.34 0 1 C0 0.67 0 0.34 0 0 Z " fill="#648167" transform="translate(367,92)"/>
<path d="M0 0 C2.9375 0.375 2.9375 0.375 6 1 C6.33 1.66 6.66 2.32 7 3 C6.67 3.66 6.34 4.32 6 5 C6.66 5 7.32 5 8 5 C8 5.99 8 6.98 8 8 C8.66 8.33 9.32 8.66 10 9 C8.02 9 6.04 9 4 9 C4.66 8.34 5.32 7.68 6 7 C4.68 7.33 3.36 7.66 2 8 C2 7.01 2 6.02 2 5 C2.66 4.67 3.32 4.34 4 4 C2.68 2.68 1.36 1.36 0 0 Z " fill="#456D3A" transform="translate(303,86)"/>
<path d="M0 0 C0.66 0 1.32 0 2 0 C2.08159574 4.16138263 1.98248524 7.9472484 1 12 C-1.89932357 9.60490662 -2.50168276 7.68754757 -3 4 C-2.01 4 -1.02 4 0 4 C0 2.68 0 1.36 0 0 Z " fill="#C7CFCE" transform="translate(368,96)"/>
<path d="M0 0 C7.34200883 2.04613361 7.34200883 2.04613361 9.1640625 4.6875 C9.9375 6.5625 9.9375 6.5625 11 10 C11.33 10.66 11.66 11.32 12 12 C8.81229117 10.86153256 7.96880926 9.95009482 6.125 7 C3.65680625 3.51549117 2.08265781 2.92787677 -2 2 C-1.34 1.34 -0.68 0.68 0 0 Z " fill="#578055" transform="translate(118,92)"/>
<path d="M0 0 C0.99 0.66 1.98 1.32 3 2 C2.01 2.33 1.02 2.66 0 3 C0.33 3.66 0.66 4.32 1 5 C2.32 5 3.64 5 5 5 C4.01 5.33 3.02 5.66 2 6 C2 6.66 2 7.32 2 8 C-0.64 8.33 -3.28 8.66 -6 9 C-5.38125 8.443125 -4.7625 7.88625 -4.125 7.3125 C-1.93893621 4.93354822 -1.01214301 3.03642904 0 0 Z " fill="#5A884C" transform="translate(305,88)"/>
<path d="M0 0 C3.3 0 6.6 0 10 0 C5.5078125 5.46875 5.5078125 5.46875 4 7 C3.34 7 2.68 7 2 7 C2 6.34 2 5.68 2 5 C2.66 5 3.32 5 4 5 C4 4.34 4 3.68 4 3 C2.68 2.67 1.36 2.34 0 2 C0 1.34 0 0.68 0 0 Z " fill="#B9C6C0" transform="translate(116,85)"/>
<path d="M0 0 C-1.485 2.475 -1.485 2.475 -3 5 C-4.65 4.67 -6.3 4.34 -8 4 C-7.67 3.34 -7.34 2.68 -7 2 C-7.33 1.01 -7.66 0.02 -8 -1 C-4.37673261 -2.2077558 -3.35853631 -1.54311128 0 0 Z " fill="#C7CACF" transform="translate(327,158)"/>
<path d="M0 0 C1.32 0 2.64 0 4 0 C4.309375 0.78375 4.61875 1.5675 4.9375 2.375 C5.92875038 4.92330128 5.92875038 4.92330128 7 7 C4.36 6.67 1.72 6.34 -1 6 C-0.67 4.02 -0.34 2.04 0 0 Z " fill="#DDE7E6" transform="translate(110,85)"/>
<path d="M0 0 C1.46484375 1.30208333 2.9296875 2.60416667 4.39453125 3.90625 C6.089448 5.28151241 6.089448 5.28151241 9 5 C9.33 6.98 9.66 8.96 10 11 C6.8510285 9.63088196 4.9521513 8.1247864 2.75 5.5 C2.22921875 4.8915625 1.7084375 4.283125 1.171875 3.65625 C0 2 0 2 0 0 Z " fill="#3D7744" transform="translate(151,98)"/>
<path d="M0 0 C-0.309375 0.763125 -0.61875 1.52625 -0.9375 2.3125 C-1.67893593 4.18789677 -2.36228217 6.08684652 -3 8 C-5.97 7.505 -5.97 7.505 -9 7 C-3.65789474 0 -3.65789474 0 0 0 Z " fill="#1C5523" transform="translate(161,88)"/>
<path d="M0 0 C1.52519276 0.08937803 3.04681929 0.24537146 4.5625 0.4375 C5.80193359 0.59025391 5.80193359 0.59025391 7.06640625 0.74609375 C7.70449219 0.82988281 8.34257812 0.91367188 9 1 C8.67 1.66 8.34 2.32 8 3 C5.67843403 3.40729228 3.3431213 3.74438677 1 4 C1 5.65 1 7.3 1 9 C0.67 9 0.34 9 0 9 C-0.87890625 2.84765625 -0.87890625 2.84765625 -1 1 C-0.67 0.67 -0.34 0.34 0 0 Z " fill="#C5CBC6" transform="translate(187,90)"/>
<path d="M0 0 C0.99 0 1.98 0 3 0 C2.67 1.32 2.34 2.64 2 4 C-4.6 4 -11.2 4 -18 4 C-18 3.67 -18 3.34 -18 3 C-15.54203147 2.80563509 -13.08390706 2.6192258 -10.625 2.4375 C-9.92632812 2.38142578 -9.22765625 2.32535156 -8.5078125 2.26757812 C-3.2265625 1.88671875 -3.2265625 1.88671875 -1 3 C-0.67 2.01 -0.34 1.02 0 0 Z " fill="#B1BDB7" transform="translate(205,82)"/>
<path d="M0 0 C0 1.65 0 3.3 0 5 C-3.28696233 5.79953138 -4.71023192 6.09658936 -8 5 C-8 3.68 -8 2.36 -8 1 C-1.125 0 -1.125 0 0 0 Z " fill="#63666B" transform="translate(309,305)"/>
<path d="M0 0 C2.475 0.495 2.475 0.495 5 1 C4.67 2.65 4.34 4.3 4 6 C2.68 6.33 1.36 6.66 0 7 C0 4.69 0 2.38 0 0 Z " fill="#88898E" transform="translate(232,105)"/>
<path d="M0 0 C0.33 0.66 0.66 1.32 1 2 C0.09373216 3.2989839 -0.82549537 4.58893167 -1.75 5.875 C-2.51570313 6.95394531 -2.51570313 6.95394531 -3.296875 8.0546875 C-5 10 -5 10 -9 12 C-7.02 9.36 -5.04 6.72 -3 4 C-3.99 3.67 -4.98 3.34 -6 3 C-3 1 -3 1 -1 1 C-0.67 0.67 -0.34 0.34 0 0 Z " fill="#2F6836" transform="translate(334,97)"/>
<path d="M0 0 C2.91517292 1.07401108 4.77810176 1.77810176 7 4 C6 5 6 5 2.4375 5.0625 C1.303125 5.041875 0.16875 5.02125 -1 5 C-1 1 -1 1 0 0 Z " fill="#B1C2C2" transform="translate(367,87)"/>
<path d="M0 0 C0.66 1.32 1.32 2.64 2 4 C-1.34844914 5.05236973 -2.59079889 5.20005388 -5.8125 3.625 C-6.534375 3.08875 -7.25625 2.5525 -8 2 C-8 1.67 -8 1.34 -8 1 C-6.865625 1.020625 -5.73125 1.04125 -4.5625 1.0625 C-1.18424326 1.41577477 -1.18424326 1.41577477 0 0 Z " fill="#E6E7EB" transform="translate(181,162)"/>
<path d="M0 0 C1.32 0 2.64 0 4 0 C4 0.66 4 1.32 4 2 C3.01 2.495 3.01 2.495 2 3 C2 4.32 2 5.64 2 7 C0.68 7 -0.64 7 -2 7 C-2.33 6.01 -2.66 5.02 -3 4 C-2.01 3.67 -1.02 3.34 0 3 C0 2.01 0 1.02 0 0 Z " fill="#508045" transform="translate(355,95)"/>
<path d="M0 0 C0.66 0.33 1.32 0.66 2 1 C1.5206753 5.31392226 0.2542015 7.16569547 -3 10 C-3.33 9.01 -3.66 8.02 -4 7 C-3.34 6.67 -2.68 6.34 -2 6 C-2.33 4.68 -2.66 3.36 -3 2 C-2.01 2 -1.02 2 0 2 C0 1.34 0 0.68 0 0 Z " fill="#42703B" transform="translate(359,95)"/>
<path d="M0 0 C0.61875 0.474375 1.2375 0.94875 1.875 1.4375 C3.90705546 3.02417441 3.90705546 3.02417441 6 4 C6 4.66 6 5.32 6 6 C0.25 6.125 0.25 6.125 -2 5 C-2 3.68 -2 2.36 -2 1 C-1.34 0.67 -0.68 0.34 0 0 Z " fill="#BDBFC5" transform="translate(299,80)"/>
<path d="M0 0 C0.99 0.33 1.98 0.66 3 1 C2.375 2.9375 2.375 2.9375 1 5 C-2.95086687 6.11654933 -4.95742988 6.01064253 -9 5 C-6.03 4.34 -3.06 3.68 0 3 C0 2.01 0 1.02 0 0 Z " fill="#BCC4BC" transform="translate(207,86)"/>
<path d="M0 0 C2.64 0 5.28 0 8 0 C7.67 1.65 7.34 3.3 7 5 C2.25 3.125 2.25 3.125 0 2 C0 1.34 0 0.68 0 0 Z " fill="#A3ABAE" transform="translate(367,85)"/>
<path d="M0 0 C0.5534764 2.07553648 1 3.84365964 1 6 C-2.63 5.67 -6.26 5.34 -10 5 C-9.34 4.34 -8.68 3.68 -8 3 C-6.7934375 3.0309375 -6.7934375 3.0309375 -5.5625 3.0625 C-2.93712179 3.26281458 -2.93712179 3.26281458 -1.1875 1.5 C-0.795625 1.005 -0.40375 0.51 0 0 Z " fill="#BCBEC2" transform="translate(335,80)"/>
<path d="M0 0 C0.99 0.33 1.98 0.66 3 1 C3 4.63 3 8.26 3 12 C2.34 12 1.68 12 1 12 C0.67 8.04 0.34 4.08 0 0 Z " fill="#191A1E" transform="translate(244,126)"/>
<path d="M0 0 C0.66 0 1.32 0 2 0 C3.40568804 1.94982535 4.7295036 3.95950578 6 6 C6.598125 6.9075 7.19625 7.815 7.8125 8.75 C8.204375 9.4925 8.59625 10.235 9 11 C8.67 11.66 8.34 12.32 8 13 C1.48063781 4.738041 1.48063781 4.738041 0 0 Z " fill="#699470" transform="translate(149,98)"/>
<path d="M0 0 C4.41889613 1.35021826 6.34345343 3.26115668 9 7 C7.02 7.33 5.04 7.66 3 8 C3 6.68 3 5.36 3 4 C2.01 3.34 1.02 2.68 0 2 C0 1.34 0 0.68 0 0 Z " fill="#0A4612" transform="translate(325,88)"/>
<path d="M0 0 C0.99 0 1.98 0 3 0 C3.66 2.31 4.32 4.62 5 7 C7.31 7.33 9.62 7.66 12 8 C12 8.33 12 8.66 12 9 C9.36 9 6.72 9 4 9 C2.68 6.03 1.36 3.06 0 0 Z " fill="#A5BBAB" transform="translate(333,86)"/>
<path d="M0 0 C0.66 1.32 1.32 2.64 2 4 C-3.94 4.495 -3.94 4.495 -10 5 C-9.67 3.68 -9.34 2.36 -9 1 C-8.34 1 -7.68 1 -7 1 C-7 1.66 -7 2.32 -7 3 C-6.34 3 -5.68 3 -5 3 C-4.67 2.34 -4.34 1.68 -4 1 C-4 1.66 -4 2.32 -4 3 C-2.68 3 -1.36 3 0 3 C0 2.01 0 1.02 0 0 Z " fill="#BEC1C6" transform="translate(302,307)"/>
<path d="M0 0 C1 2 1 2 0.375 5 C-1 8 -1 8 -3.625 9.375 C-4.40875 9.58125 -5.1925 9.7875 -6 10 C-5.49477778 5.62140745 -2.82172778 3.18348776 0 0 Z " fill="#C3D2C7" transform="translate(353,112)"/>
<path d="M0 0 C1.2684375 0.2475 1.2684375 0.2475 2.5625 0.5 C6.09138856 1.01329288 9.43932689 1.07121346 13 1 C13 1.33 13 1.66 13 2 C8.53763531 3.80619523 5.68965706 4.11658501 1 3 C0.67 2.01 0.34 1.02 0 0 Z " fill="#699E6C" transform="translate(169,99)"/>
<path d="M0 0 C0 0.66 0 1.32 0 2 C0.66 2 1.32 2 2 2 C2 2.66 2 3.32 2 4 C-4.15234375 3.4140625 -4.15234375 3.4140625 -6 3 C-6.33 2.34 -6.66 1.68 -7 1 C-4 0 -4 0 0 0 Z " fill="#B2BBB8" transform="translate(344,85)"/>
<path d="M0 0 C2.31 0.33 4.62 0.66 7 1 C6.34 2.32 5.68 3.64 5 5 C4.67 4.34 4.34 3.68 4 3 C3.34 3 2.68 3 2 3 C2 3.66 2 4.32 2 5 C1.34 5 0.68 5 0 5 C0 3.35 0 1.7 0 0 Z " fill="#74777C" transform="translate(293,158)"/>
<path d="M0 0 C1.65 0.33 3.3 0.66 5 1 C4.67 1.99 4.34 2.98 4 4 C3.01 3.67 2.02 3.34 1 3 C0.67 4.32 0.34 5.64 0 7 C-0.66 7 -1.32 7 -2 7 C-2 5.68 -2 4.36 -2 3 C-1.34 3 -0.68 3 0 3 C0 2.01 0 1.02 0 0 Z " fill="#E7E8EC" transform="translate(171,156)"/>
<path d="M0 0 C0.66 0.99 1.32 1.98 2 3 C-0.62315032 4.31157516 -2.23033436 3.89649988 -5.125 3.5625 C-6.03507812 3.46066406 -6.94515625 3.35882813 -7.8828125 3.25390625 C-8.58148438 3.17011719 -9.28015625 3.08632812 -10 3 C-8 1 -8 1 -5 0.9375 C-4.01 0.958125 -3.02 0.97875 -2 1 C-1.34 0.67 -0.68 0.34 0 0 Z " fill="#CBDAD3" transform="translate(346,120)"/>
<path d="M0 0 C0 0.33 0 0.66 0 1 C-6.06696699 1.77040851 -11.88514973 2.09706112 -18 2 C-18 1.67 -18 1.34 -18 1 C-11.61767125 -1.00925164 -6.59390542 -0.99989549 0 0 Z " fill="#9FB19F" transform="translate(333,85)"/>
<path d="M0 0 C1.65 0 3.3 0 5 0 C4.67 1.65 4.34 3.3 4 5 C2.35 5 0.7 5 -1 5 C-0.67 3.35 -0.34 1.7 0 0 Z " fill="#686B70" transform="translate(311,306)"/>
<path d="M0 0 C0.99 0 1.98 0 3 0 C3 0.66 3 1.32 3 2 C3.66 2 4.32 2 5 2 C4 5 4 5 2 7 C1.34 7 0.68 7 0 7 C0 4.69 0 2.38 0 0 Z " fill="#6D6E73" transform="translate(243,105)"/>
<path d="M0 0 C2.3431213 0.25561323 4.67843403 0.59270772 7 1 C7.33 1.66 7.66 2.32 8 3 C6.68 4.32 5.36 5.64 4 7 C3.34 6.67 2.68 6.34 2 6 C2.99 5.34 3.98 4.68 5 4 C2.525 3.01 2.525 3.01 0 2 C0 1.34 0 0.68 0 0 Z " fill="#3D7437" transform="translate(314,95)"/>
<path d="M0 0 C1.98 0 3.96 0 6 0 C5.01 0.33 4.02 0.66 3 1 C2.67 2.65 2.34 4.3 2 6 C0.68 5.67 -0.64 5.34 -2 5 C-2 4.34 -2 3.68 -2 3 C-1.34 3 -0.68 3 0 3 C0 2.01 0 1.02 0 0 Z " fill="#71A161" transform="translate(173,95)"/>
<path d="M0 0 C2.64 0 5.28 0 8 0 C8 0.66 8 1.32 8 2 C6.02 2.66 4.04 3.32 2 4 C1.34 2.68 0.68 1.36 0 0 Z " fill="#638555" transform="translate(170,87)"/>
<path d="M0 0 C2.31 0 4.62 0 7 0 C7 0.99 7 1.98 7 3 C5.02 3.33 3.04 3.66 1 4 C0.67 2.68 0.34 1.36 0 0 Z " fill="#6F8F65" transform="translate(200,86)"/>
<path d="M0 0 C2.97 0 5.94 0 9 0 C9 0.66 9 1.32 9 2 C10.65 2 12.3 2 14 2 C14 2.33 14 2.66 14 3 C8.78020872 3.1799928 4.92737019 2.97094808 0 1 C0 0.67 0 0.34 0 0 Z " fill="#6C8668" transform="translate(153,85)"/>
<path d="M0 0 C1.98 0.495 1.98 0.495 4 1 C3.67 2.32 3.34 3.64 3 5 C1.68 4.67 0.36 4.34 -1 4 C-0.67 2.68 -0.34 1.36 0 0 Z " fill="#6C6D72" transform="translate(138,399)"/>
<path d="M0 0 C1.32 0 2.64 0 4 0 C3.67 1.65 3.34 3.3 3 5 C1.68 4.67 0.36 4.34 -1 4 C-0.67 2.68 -0.34 1.36 0 0 Z " fill="#65686D" transform="translate(255,381)"/>
<path d="M0 0 C1.98 0.495 1.98 0.495 4 1 C3.67 2.32 3.34 3.64 3 5 C1.68 4.67 0.36 4.34 -1 4 C-0.67 2.68 -0.34 1.36 0 0 Z " fill="#6A6B70" transform="translate(138,362)"/>
<path d="M0 0 C0.99 0 1.98 0 3 0 C3.33 1.32 3.66 2.64 4 4 C2.35 4.33 0.7 4.66 -1 5 C-0.67 3.35 -0.34 1.7 0 0 Z " fill="#707176" transform="translate(138,343)"/>
<path d="M0 0 C1.32 0 2.64 0 4 0 C3.67 1.65 3.34 3.3 3 5 C1.68 4.67 0.36 4.34 -1 4 C-0.67 2.68 -0.34 1.36 0 0 Z " fill="#66696E" transform="translate(255,344)"/>
<path d="M0 0 C1.98 0.495 1.98 0.495 4 1 C3.67 2.32 3.34 3.64 3 5 C1.68 4.67 0.36 4.34 -1 4 C-0.67 2.68 -0.34 1.36 0 0 Z " fill="#6B6C71" transform="translate(138,325)"/>
<path d="M0 0 C1.98 0.495 1.98 0.495 4 1 C3.67 2.32 3.34 3.64 3 5 C1.68 4.67 0.36 4.34 -1 4 C-0.67 2.68 -0.34 1.36 0 0 Z " fill="#707176" transform="translate(138,288)"/>
<path d="M0 0 C1.98 0.495 1.98 0.495 4 1 C3.67 2.32 3.34 3.64 3 5 C1.68 4.67 0.36 4.34 -1 4 C-0.67 2.68 -0.34 1.36 0 0 Z " fill="#6F7074" transform="translate(138,251)"/>
<path d="M0 0 C1.98 0.495 1.98 0.495 4 1 C3.67 2.32 3.34 3.64 3 5 C1.68 4.67 0.36 4.34 -1 4 C-0.67 2.68 -0.34 1.36 0 0 Z " fill="#717276" transform="translate(138,233)"/>
<path d="M0 0 C1.98 0.495 1.98 0.495 4 1 C3.67 2.32 3.34 3.64 3 5 C1.68 4.67 0.36 4.34 -1 4 C-0.67 2.68 -0.34 1.36 0 0 Z " fill="#727377" transform="translate(138,196)"/>
<path d="M0 0 C2.97 0.495 2.97 0.495 6 1 C5.01 1.33 4.02 1.66 3 2 C2.67 2.99 2.34 3.98 2 5 C0.68 4.67 -0.64 4.34 -2 4 C-1.34 2.68 -0.68 1.36 0 0 Z " fill="#D0D3D8" transform="translate(302,162)"/>
<path d="M0 0 C0 1.65 0 3.3 0 5 C-0.99 5.33 -1.98 5.66 -3 6 C-3.33 5.34 -3.66 4.68 -4 4 C-6.01669827 2.86649466 -6.01669827 2.86649466 -8 2 C-1.125 0 -1.125 0 0 0 Z " fill="#B8B9BE" transform="translate(282,121)"/>
<path d="M0 0 C3.3 0.33 6.6 0.66 10 1 C8 3 8 3 5 3.3125 C4.01 3.209375 3.02 3.10625 2 3 C1.34 2.01 0.68 1.02 0 0 Z " fill="#7FA383" transform="translate(336,119)"/>
<path d="M0 0 C2.31 0.66 4.62 1.32 7 2 C7 2.33 7 2.66 7 3 C3.7 3.33 0.4 3.66 -3 4 C-2.01 2.68 -1.02 1.36 0 0 Z " fill="#3A6540" transform="translate(122,89)"/>
<path d="M0 0 C0.99 0.33 1.98 0.66 3 1 C2.67 2.32 2.34 3.64 2 5 C-0.64 5 -3.28 5 -6 5 C-6 4.67 -6 4.34 -6 4 C-4.35 3.67 -2.7 3.34 -1 3 C-0.67 2.01 -0.34 1.02 0 0 Z " fill="#B3C6B8" transform="translate(147,90)"/>
<path d="M0 0 C1.98 0 3.96 0 6 0 C6 0.99 6 1.98 6 3 C3.69 3 1.38 3 -1 3 C-0.67 2.01 -0.34 1.02 0 0 Z " fill="#1B5120" transform="translate(286,87)"/>
<path d="M0 0 C2.31 0 4.62 0 7 0 C7.33 1.32 7.66 2.64 8 4 C5.64828869 3.40138258 3.3140622 2.73075648 1 2 C0.67 1.34 0.34 0.68 0 0 Z " fill="#335B3C" transform="translate(345,86)"/>
<path d="M0 0 C-1.32 1.65 -2.64 3.3 -4 5 C-4.99 4.01 -5.98 3.02 -7 2 C-5.20949654 -1.58100692 -3.4370813 -1.03112439 0 0 Z " fill="#E3E4E9" transform="translate(143,331)"/>
<path d="M0 0 C1.32 0.33 2.64 0.66 4 1 C3.67 1.99 3.34 2.98 3 4 C2.01 4.33 1.02 4.66 0 5 C-0.99 4.34 -1.98 3.68 -3 3 C-2.34 3 -1.68 3 -1 3 C-0.67 2.01 -0.34 1.02 0 0 Z " fill="#62656A" transform="translate(290,306)"/>
<path d="M0 0 C0.99 0 1.98 0 3 0 C3 1.65 3 3.3 3 5 C1.68 5 0.36 5 -1 5 C-0.67 3.35 -0.34 1.7 0 0 Z " fill="#64676C" transform="translate(256,270)"/>
<path d="M0 0 C2.475 0.495 2.475 0.495 5 1 C5 1.99 5 2.98 5 4 C3.35 4 1.7 4 0 4 C0 2.68 0 1.36 0 0 Z " fill="#6E6F73" transform="translate(137,270)"/>
<path d="M0 0 C3.3 0 6.6 0 10 0 C9.67 0.66 9.34 1.32 9 2 C6.6859378 2.73075648 4.35171131 3.40138258 2 4 C1.34 2.68 0.68 1.36 0 0 Z " fill="#C0DACF" transform="translate(315,114)"/>
<path d="M0 0 C0 1.65 0 3.3 0 5 C-1.65 5.66 -3.3 6.32 -5 7 C-4.53479806 4.30182875 -3.4249099 0 0 0 Z " fill="#6B8E62" transform="translate(304,89)"/>
<path d="M0 0 C1.98 1.65 3.96 3.3 6 5 C3 6 3 6 0 5 C-0.33 4.01 -0.66 3.02 -1 2 C-0.67 1.34 -0.34 0.68 0 0 Z " fill="#2B5535" transform="translate(362,88)"/>
<path d="M0 0 C2.475 0.495 2.475 0.495 5 1 C4.67 1.99 4.34 2.98 4 4 C2.68 4 1.36 4 0 4 C0 2.68 0 1.36 0 0 Z " fill="#66676C" transform="translate(137,381)"/>
<path d="M0 0 C2.475 0.495 2.475 0.495 5 1 C4.67 1.99 4.34 2.98 4 4 C2.68 4 1.36 4 0 4 C0 2.68 0 1.36 0 0 Z " fill="#68696E" transform="translate(137,307)"/>
<path d="M0 0 C1.32 0.33 2.64 0.66 4 1 C3.67 2.32 3.34 3.64 3 5 C2.01 5 1.02 5 0 5 C0 3.35 0 1.7 0 0 Z " fill="#63666B" transform="translate(255,233)"/>
<path d="M0 0 C1.32 0 2.64 0 4 0 C4 1.32 4 2.64 4 4 C2.35 3.67 0.7 3.34 -1 3 C-0.67 2.01 -0.34 1.02 0 0 Z " fill="#66696E" transform="translate(255,215)"/>
<path d="M0 0 C1.65 0 3.3 0 5 0 C4.67 1.32 4.34 2.64 4 4 C2.68 3.67 1.36 3.34 0 3 C0 2.01 0 1.02 0 0 Z " fill="#6D6E72" transform="translate(137,215)"/>
<path d="M0 0 C2.475 0.495 2.475 0.495 5 1 C4.67 1.99 4.34 2.98 4 4 C2.68 4 1.36 4 0 4 C0 2.68 0 1.36 0 0 Z " fill="#6D6E72" transform="translate(137,178)"/>
<path d="M0 0 C0.99 0 1.98 0 3 0 C3 2.31 3 4.62 3 7 C2.01 7.33 1.02 7.66 0 8 C0 5.36 0 2.72 0 0 Z " fill="#9C9DA1" transform="translate(233,130)"/>
<path d="M0 0 C2.31 0.66 4.62 1.32 7 2 C5.68 3.32 4.36 4.64 3 6 C2.34 5.67 1.68 5.34 1 5 C0.375 2.4375 0.375 2.4375 0 0 Z " fill="#548243" transform="translate(343,107)"/>
<path d="M0 0 C0.66 0.33 1.32 0.66 2 1 C2.34342449 2.33076989 2.67619874 3.66431979 3 5 C3.66 5.66 4.32 6.32 5 7 C1.73045798 6.43628586 0.17424117 5.50037734 -2 3 C-1.34 2.01 -0.68 1.02 0 0 Z " fill="#6A9657" transform="translate(139,107)"/>
<path d="M0 0 C0.66 0.33 1.32 0.66 2 1 C2.625 3.0625 2.625 3.0625 3 5 C2.67 4.34 2.34 3.68 2 3 C1.34 3 0.68 3 0 3 C0 3.66 0 4.32 0 5 C-1.32 4.67 -2.64 4.34 -4 4 C-2.68 2.68 -1.36 1.36 0 0 Z " fill="#5E8759" transform="translate(350,98)"/>
<path d="M0 0 C2.97 0.495 2.97 0.495 6 1 C4.68 2.32 3.36 3.64 2 5 C0 1.125 0 1.125 0 0 Z " fill="#5B945F" transform="translate(160,99)"/>
<path d="M0 0 C2.64 0.33 5.28 0.66 8 1 C5.36095629 2.41377341 2.92879371 3.37240135 0 4 C0 2.68 0 1.36 0 0 Z " fill="#658F76" transform="translate(110,91)"/>
<path d="M0 0 C-0.33 0.99 -0.66 1.98 -1 3 C-3.31 3 -5.62 3 -8 3 C-8 2.34 -8 1.68 -8 1 C-5.23735711 0.40267181 -2.83967231 0 0 0 Z " fill="#517946" transform="translate(170,87)"/>
<path d="M0 0 C2.64 0.66 5.28 1.32 8 2 C8 2.66 8 3.32 8 4 C7.01 4.33 6.02 4.66 5 5 C5 4.34 5 3.68 5 3 C3.35 3 1.7 3 0 3 C0 2.01 0 1.02 0 0 Z " fill="#A8B4AB" transform="translate(297,85)"/>
<path d="M0 0 C1.98 0 3.96 0 6 0 C6.33 0.99 6.66 1.98 7 3 C5.02 3 3.04 3 1 3 C0.67 2.01 0.34 1.02 0 0 Z " fill="#1B5624" transform="translate(192,87)"/>
<path d="M0 0 C0.99 0.33 1.98 0.66 3 1 C3 2.32 3 3.64 3 5 C1.68 4.67 0.36 4.34 -1 4 C-0.67 2.68 -0.34 1.36 0 0 Z " fill="#606368" transform="translate(256,196)"/>
<path d="M0 0 C0.33 0.66 0.66 1.32 1 2 C1.66 2 2.32 2 3 2 C2.67 2.99 2.34 3.98 2 5 C0.35 5.33 -1.3 5.66 -3 6 C-2 4 -1 2 0 0 Z " fill="#E6E7EC" transform="translate(196,161)"/>
<path d="M0 0 C0.6875 1.8125 0.6875 1.8125 1 4 C-0.4375 5.75 -0.4375 5.75 -2 7 C-2.66 6.67 -3.32 6.34 -4 6 C-2.84826645 3.53199953 -1.95216435 1.95216435 0 0 Z " fill="#E6E7EB" transform="translate(202,136)"/>
<path d="M0 0 C0.33 0 0.66 0 1 0 C1.625 2.8125 1.625 2.8125 2 6 C1.01 7.485 1.01 7.485 0 9 C-0.66 8.67 -1.32 8.34 -2 8 C-1.125 1.125 -1.125 1.125 0 0 Z " fill="#E5EFE6" transform="translate(151,113)"/>
<path d="M0 0 C-0.99 0.33 -1.98 0.66 -3 1 C-3 1.66 -3 2.32 -3 3 C-4.65 3 -6.3 3 -8 3 C-8 2.34 -8 1.68 -8 1 C-3.375 -1.125 -3.375 -1.125 0 0 Z " fill="#5D9255" transform="translate(344,114)"/>
<path d="M0 0 C0.33 0.66 0.66 1.32 1 2 C1.99 2 2.98 2 4 2 C3.67 2.99 3.34 3.98 3 5 C1.02 5 -0.96 5 -3 5 C-2.67 4.01 -2.34 3.02 -2 2 C-1.34 2 -0.68 2 0 2 C0 1.34 0 0.68 0 0 Z " fill="#76A86D" transform="translate(145,112)"/>
<path d="M0 0 C0.66 0.66 1.32 1.32 2 2 C1.01 2.33 0.02 2.66 -1 3 C-2.21869929 5.50447516 -2.21869929 5.50447516 -3 8 C-3.66 8 -4.32 8 -5 8 C-3.8141763 4.62496331 -2.72426311 2.35277269 0 0 Z " fill="#74986A" transform="translate(341,107)"/>
<path d="M0 0 C0.66 0.33 1.32 0.66 2 1 C2 1.99 2 2.98 2 4 C2.66 4.33 3.32 4.66 4 5 C2.68 5.33 1.36 5.66 0 6 C-0.38218767 4.34385343 -0.71395102 2.67542976 -1 1 C-0.67 0.67 -0.34 0.34 0 0 Z " fill="#6A9955" transform="translate(133,100)"/>
<path d="M0 0 C0.33 0.66 0.66 1.32 1 2 C1.66 2 2.32 2 3 2 C3 2.66 3 3.32 3 4 C0.64561267 5.42944945 -0.48032433 6.08661261 -3.25 5.625 C-3.8275 5.41875 -4.405 5.2125 -5 5 C-4.01 5 -3.02 5 -2 5 C-1.34 3.35 -0.68 1.7 0 0 Z " fill="#326A35" transform="translate(161,88)"/>
<path d="M0 0 C0.66 0.33 1.32 0.66 2 1 C1.34 2.65 0.68 4.3 0 6 C-1.32 5.67 -2.64 5.34 -4 5 C-3.67 4.01 -3.34 3.02 -3 2 C-2.01 2 -1.02 2 0 2 C0 1.34 0 0.68 0 0 Z " fill="#326430" transform="translate(324,87)"/>
<path d="M0 0 C2.475 0.99 2.475 0.99 5 2 C4.01 2.33 3.02 2.66 2 3 C2 3.66 2 4.32 2 5 C1.01 5 0.02 5 -1 5 C-0.67 3.35 -0.34 1.7 0 0 Z " fill="#C0BFC7" transform="translate(321,80)"/>
</svg>
